<svg width="816" height="145" xmlns="http://www.w3.org/2000/svg" xmlns:xlink="http://www.w3.org/1999/xlink" xml:space="preserve" overflow="hidden"><defs><clipPath id="clip0"><rect x="0" y="0" width="816" height="145"/></clipPath><clipPath id="clip1"><rect x="0" y="0" width="773" height="104"/></clipPath></defs><g clip-path="url(#clip0)"><g clip-path="url(#clip1)"><path d="M755.51 47.4921C755.51 47.4921 783.897 52.4389 815.966 52.6095L815.952 50.6052C815.952 50.6052 787.664 50.8326 761.04 46.1417" fill="#55BEC4" transform="matrix(1.00002 0 0 1 0 0.245443)"/><path d="M608.4 47.549C608.4 47.549 580.78 52.6095 547.275 52.6095L547.29 50.591C547.29 50.591 575.321 50.7758 602.216 46.1275" fill="#08AEBE" transform="matrix(1.00002 0 0 1 0 0.245443)"/><path d="M11.3293 52.6095 548.583 52.6095 548.583 50.5768 11.3293 50.5768C10.7749 50.5768 10.32 51.0317 10.32 51.586L10.32 51.586C10.32 52.1546 10.7749 52.6095 11.3293 52.6095Z" fill="#08AEBE" transform="matrix(1.00002 0 0 1 0 0.245443)"/></g><path d="M597.355 96.9743C596.9 97.4434 596.317 97.742 595.663 97.7562 595.109 97.813 594.54 97.6851 594.071 97.4008 593.559 97.0881 593.133 96.7043 592.863 96.1925 592.721 95.9367 592.593 95.6808 592.521 95.3965 592.45 95.0127 592.436 94.7284 592.45 94.3304 592.479 94.0319 592.706 93.776 592.919 93.648 593.104 93.5343 593.588 93.4064 593.588 93.4064 593.943 92.9515 594.512 92.6246 595.009 92.4682 595.606 92.3118 596.217 92.3403 596.786 92.5677 597.355 92.7952 597.809 93.3211 598.037 93.8897 598.236 94.3872 598.25 94.9843 598.136 95.4818 597.994 96.0362 597.738 96.5763 597.355 96.9743Z" fill="#08AEBE" transform="matrix(1.00002 0 0 1 0 0.245443)"/><path d="M789.981 92.4114C789.981 89.7532 785.873 89.7532 785.873 92.4114L785.873 103.599C785.873 107.252 785.902 110.919 785.873 114.572 785.859 116.989 784.864 119.278 782.874 120.713 781.324 121.851 779.576 122.135 777.714 122.135L757.472 122.135C755.908 122.135 755.197 123.4 755.197 124.949L755.197 126.243 768.019 126.243C771.516 126.243 775.013 126.3 778.51 126.243 785.077 126.129 789.967 120.87 789.995 114.388 790.024 107.081 789.981 99.7463 789.981 92.4114Z" fill="#08AEBE" transform="matrix(1.00002 0 0 1 0 0.245443)"/><path d="M755.339 144.509C754.529 144.509 753.719 144.253 753.051 143.756L727.379 125.603C726.483 124.964 726.27 123.727 726.91 122.831 727.549 121.936 728.786 121.723 729.682 122.362L755.084 140.33 755.084 124.196C755.084 123.101 755.979 122.206 757.074 122.206 758.168 122.206 759.064 123.101 759.064 124.196L759.064 140.557C759.149 142.007 758.438 143.329 757.187 144.04 756.605 144.353 755.979 144.509 755.339 144.509Z" fill="#08AEBE" transform="matrix(1.00002 0 0 1 0 0.245443)"/><path d="M646.183 108.815 646.183 98.8365 647.306 98.8365 647.306 103.03 647.078 103.03C647.078 102.12 647.206 101.324 647.462 100.656 647.718 99.9879 648.102 99.4762 648.614 99.1066 649.125 98.737 649.779 98.5522 650.575 98.5522L650.632 98.5522C651.428 98.5522 652.082 98.737 652.594 99.0924 653.106 99.462 653.489 99.9737 653.745 100.642 654.001 101.31 654.129 102.106 654.129 103.03L653.674 103.03C653.674 102.12 653.802 101.324 654.058 100.656 654.314 99.9879 654.698 99.4762 655.224 99.1066 655.75 98.737 656.403 98.5522 657.185 98.5522L657.242 98.5522C658.038 98.5522 658.692 98.737 659.204 99.0924 659.73 99.462 660.114 99.9737 660.369 100.642 660.625 101.31 660.753 102.106 660.753 103.03L660.753 108.815 659.346 108.815 659.346 102.717C659.346 101.836 659.133 101.139 658.706 100.628 658.28 100.116 657.669 99.86 656.858 99.86 656.034 99.86 655.38 100.13 654.897 100.656 654.413 101.196 654.172 101.907 654.172 102.817L654.172 108.83 652.764 108.83 652.764 102.731C652.764 101.85 652.551 101.154 652.125 100.642 651.698 100.13 651.087 99.8742 650.277 99.8742 649.452 99.8742 648.798 100.144 648.315 100.67 647.832 101.21 647.59 101.921 647.59 102.831L647.59 108.844 646.183 108.844Z" fill="#020203" transform="matrix(1.00002 0 0 1 0 0.245443)"/><path d="M667.605 109.1C666.411 109.1 665.501 108.716 664.876 107.948 664.25 107.181 663.937 106.1 663.937 104.721L663.937 98.8507 665.33 98.8507 665.33 105.006C665.33 105.873 665.558 106.555 666.013 107.067 666.468 107.579 667.107 107.835 667.918 107.835 668.77 107.835 669.453 107.564 669.964 107.024 670.476 106.484 670.732 105.759 670.732 104.864L670.732 98.8507 672.139 98.8507 672.139 108.83 671.016 108.83 671.016 104.665 671.244 104.665C671.244 105.589 671.116 106.385 670.846 107.053 670.576 107.707 670.192 108.218 669.666 108.574 669.14 108.929 668.472 109.114 667.676 109.114L667.605 109.114Z" fill="#020203" transform="matrix(1.00002 0 0 1 0 0.245443)"/><path d="M675.693 108.815 675.693 98.8507 676.816 98.8507 676.816 103.03 676.589 103.03C676.589 102.106 676.731 101.31 677.001 100.642 677.271 99.9737 677.697 99.462 678.238 99.0924 678.792 98.7228 679.489 98.5522 680.327 98.5522L680.384 98.5522C681.635 98.5522 682.573 98.9502 683.184 99.732 683.796 100.514 684.108 101.623 684.108 103.03L684.108 108.815 682.715 108.815 682.715 102.731C682.715 101.864 682.474 101.168 682.005 100.642 681.521 100.116 680.867 99.8458 680.014 99.8458 679.133 99.8458 678.437 100.116 677.896 100.67 677.356 101.21 677.1 101.935 677.1 102.831L677.1 108.815 675.693 108.815Z" fill="#020203" transform="matrix(1.00002 0 0 1 0 0.245443)"/><path d="M686.454 99.9879 686.454 98.8649 689.453 98.8649 689.453 99.9879 686.454 99.9879ZM688.359 97.017C688.018 97.017 687.762 96.9317 687.591 96.7469 687.42 96.5621 687.335 96.3347 687.335 96.0646 687.335 95.7945 687.42 95.5529 687.591 95.3823 687.762 95.1975 688.018 95.1122 688.359 95.1122 688.7 95.1122 688.956 95.1975 689.112 95.3823 689.268 95.5671 689.354 95.7945 689.354 96.0646 689.354 96.3347 689.268 96.5763 689.112 96.7469 688.941 96.9175 688.686 97.017 688.359 97.017ZM688.046 108.815 688.046 98.8507 689.439 98.8507 689.439 108.815 688.046 108.815Z" fill="#020203" transform="matrix(1.00002 0 0 1 0 0.245443)"/><path d="M697.215 109.128C696.376 109.128 695.637 108.986 695.025 108.687 694.4 108.389 693.888 107.991 693.476 107.479 693.064 106.967 692.751 106.413 692.538 105.788 692.325 105.176 692.225 104.551 692.225 103.925L692.225 103.655C692.225 103.016 692.325 102.39 692.538 101.779 692.751 101.168 693.05 100.613 693.476 100.116 693.888 99.6183 694.414 99.2203 695.025 98.936 695.651 98.6375 696.362 98.4953 697.186 98.4953 698.011 98.4953 698.75 98.6517 699.404 98.9502 700.043 99.2487 700.569 99.6752 700.982 100.23 701.38 100.784 701.621 101.438 701.692 102.191L700.342 102.191C700.228 101.495 699.901 100.926 699.375 100.471 698.849 100.016 698.11 99.7889 697.2 99.7889 696.404 99.7889 695.75 99.9737 695.239 100.329 694.713 100.684 694.329 101.168 694.059 101.779 693.789 102.39 693.661 103.058 693.661 103.798 693.661 104.522 693.789 105.205 694.059 105.816 694.329 106.441 694.713 106.939 695.239 107.309 695.765 107.678 696.433 107.863 697.229 107.863 697.84 107.863 698.38 107.749 698.835 107.536 699.29 107.323 699.66 107.024 699.944 106.641 700.228 106.271 700.399 105.844 700.441 105.404L701.792 105.404C701.735 106.157 701.507 106.811 701.081 107.365 700.655 107.92 700.114 108.361 699.446 108.659 698.792 108.986 698.053 109.128 697.215 109.128Z" fill="#020203" transform="matrix(1.00002 0 0 1 0 0.245443)"/><path d="M703.185 99.9879 703.185 98.8649 706.184 98.8649 706.184 99.9879 703.185 99.9879ZM705.09 97.017C704.748 97.017 704.493 96.9317 704.322 96.7469 704.151 96.5621 704.066 96.3347 704.066 96.0646 704.066 95.7945 704.151 95.5529 704.322 95.3823 704.493 95.1975 704.748 95.1122 705.09 95.1122 705.431 95.1122 705.687 95.1975 705.843 95.3823 705.999 95.5671 706.085 95.7945 706.085 96.0646 706.085 96.3347 705.999 96.5763 705.843 96.7469 705.672 96.9175 705.431 97.017 705.09 97.017ZM704.791 108.815 704.791 98.8507 706.184 98.8507 706.184 108.815 704.791 108.815Z" fill="#020203" transform="matrix(1.00002 0 0 1 0 0.245443)"/><path d="M709.752 112.582 709.752 98.8507 710.875 98.8507 710.875 103.129 710.534 103.172C710.591 102.163 710.804 101.324 711.188 100.628 711.572 99.9311 712.098 99.4193 712.751 99.0497 713.405 98.6944 714.145 98.5096 714.969 98.5096 715.694 98.5096 716.362 98.6517 716.959 98.936 717.556 99.2203 718.068 99.6041 718.48 100.087 718.907 100.571 719.219 101.125 719.447 101.751 719.66 102.376 719.774 103.016 719.774 103.698L719.774 103.968C719.774 104.65 719.66 105.29 719.432 105.916 719.205 106.541 718.878 107.095 718.466 107.579 718.039 108.062 717.542 108.446 716.945 108.73 716.348 109.014 715.68 109.157 714.941 109.157 714.145 109.157 713.42 108.972 712.766 108.616 712.112 108.261 711.572 107.735 711.159 107.024 710.747 106.328 710.534 105.461 710.491 104.423L711.174 105.83 711.174 112.597 709.752 112.597ZM714.742 107.891C715.495 107.891 716.135 107.707 716.675 107.351 717.215 106.996 717.627 106.498 717.911 105.887 718.196 105.262 718.338 104.579 718.338 103.826 718.338 103.044 718.196 102.348 717.897 101.751 717.599 101.139 717.187 100.656 716.646 100.301 716.106 99.9453 715.467 99.7605 714.727 99.7605 714.045 99.7605 713.434 99.9168 712.879 100.215 712.325 100.514 711.884 100.94 711.572 101.48 711.245 102.021 711.088 102.675 711.088 103.414L711.088 104.338C711.088 105.034 711.245 105.66 711.572 106.186 711.899 106.726 712.325 107.138 712.879 107.437 713.462 107.749 714.073 107.891 714.742 107.891Z" fill="#020203" transform="matrix(1.00002 0 0 1 0 0.245443)"/><path d="M725.204 109.085C724.507 109.085 723.882 108.958 723.342 108.716 722.801 108.46 722.389 108.105 722.091 107.621 721.792 107.138 721.65 106.569 721.65 105.887 721.65 105.219 721.806 104.65 722.105 104.196 722.418 103.726 722.858 103.371 723.441 103.129 724.024 102.888 724.735 102.76 725.559 102.76L728.473 102.76 728.473 103.84 725.46 103.84C724.664 103.84 724.067 104.025 723.64 104.409 723.214 104.793 723.015 105.29 723.015 105.901 723.015 106.527 723.228 107.024 723.669 107.394 724.109 107.763 724.706 107.948 725.46 107.948 725.929 107.948 726.369 107.863 726.796 107.692 727.222 107.522 727.578 107.238 727.862 106.825 728.146 106.413 728.303 105.859 728.331 105.134L728.743 105.717C728.686 106.456 728.516 107.081 728.217 107.564 727.919 108.062 727.507 108.432 726.995 108.687 726.483 108.958 725.886 109.085 725.204 109.085ZM728.573 108.815 728.573 105.816 728.345 105.816 728.345 102.277C728.345 101.537 728.146 100.969 727.762 100.571 727.379 100.173 726.767 99.9737 725.957 99.9737 725.573 99.9737 725.204 99.9737 724.82 99.9879 724.436 100.002 724.067 100.016 723.725 100.031 723.384 100.045 723.072 100.073 722.816 100.102L722.816 98.8649C723.086 98.8365 723.37 98.8081 723.669 98.7939 723.953 98.7654 724.251 98.7512 724.564 98.7512 724.877 98.7512 725.175 98.737 725.46 98.737 726.483 98.737 727.293 98.8649 727.919 99.1208 728.544 99.3767 728.999 99.7605 729.283 100.301 729.568 100.841 729.71 101.537 729.71 102.419L729.71 108.815 728.573 108.815Z" fill="#020203" transform="matrix(1.00002 0 0 1 0 0.245443)"/><path d="M731.728 96.221 731.728 95.0695 734.586 95.0695 734.586 96.221 731.728 96.221ZM733.178 108.815 733.178 95.0695 734.586 95.0695 734.586 108.815 733.178 108.815Z" fill="#020203" transform="matrix(1.00002 0 0 1 0 0.245443)"/><path d="M737.045 99.9879 737.045 98.8649 740.044 98.8649 740.044 99.9879 737.045 99.9879ZM738.935 97.017C738.594 97.017 738.338 96.9317 738.168 96.7469 737.997 96.5621 737.912 96.3347 737.912 96.0646 737.912 95.7945 737.997 95.5529 738.168 95.3823 738.338 95.2117 738.594 95.1122 738.935 95.1122 739.277 95.1122 739.518 95.1975 739.689 95.3823 739.845 95.5671 739.93 95.7945 739.93 96.0646 739.93 96.3347 739.845 96.5763 739.689 96.7469 739.532 96.9175 739.277 97.017 738.935 97.017ZM738.637 108.815 738.637 98.8507 740.03 98.8507 740.03 108.815 738.637 108.815Z" fill="#020203" transform="matrix(1.00002 0 0 1 0 0.245443)"/><path d="M747.692 109.128C746.967 109.128 746.299 109 745.702 108.73 745.105 108.46 744.593 108.09 744.152 107.607 743.726 107.124 743.385 106.569 743.157 105.944 742.93 105.319 742.816 104.665 742.816 103.954L742.816 103.684C742.816 103.001 742.93 102.362 743.157 101.736 743.385 101.111 743.712 100.557 744.124 100.073 744.55 99.5899 745.048 99.2061 745.645 98.9218 746.242 98.6375 746.91 98.4953 747.649 98.4953 748.488 98.4953 749.227 98.6801 749.867 99.0355 750.506 99.3909 751.018 99.9168 751.416 100.613 751.8 101.296 752.013 102.134 752.042 103.129L751.416 101.964 751.416 95.0553 752.823 95.0553 752.823 108.801 751.7 108.801 751.7 104.38 752.155 104.38C752.127 105.418 751.914 106.299 751.501 107.01 751.089 107.721 750.563 108.247 749.895 108.602 749.255 108.958 748.516 109.128 747.692 109.128ZM747.891 107.891C748.573 107.891 749.184 107.735 749.725 107.437 750.265 107.138 750.705 106.712 751.018 106.143 751.331 105.589 751.487 104.935 751.487 104.21L751.487 103.3C751.487 102.603 751.331 101.978 751.018 101.452 750.705 100.912 750.279 100.5 749.725 100.201 749.184 99.9026 748.559 99.7463 747.877 99.7463 747.137 99.7463 746.498 99.9311 745.943 100.286 745.403 100.642 744.977 101.125 744.678 101.751 744.38 102.362 744.238 103.058 744.238 103.826 744.238 104.622 744.394 105.319 744.693 105.93 744.991 106.541 745.417 107.024 745.972 107.365 746.526 107.707 747.152 107.891 747.891 107.891Z" fill="#020203" transform="matrix(1.00002 0 0 1 0 0.245443)"/><path d="M759.05 109.085C758.353 109.085 757.728 108.958 757.187 108.716 756.647 108.46 756.235 108.105 755.936 107.621 755.638 107.138 755.496 106.569 755.496 105.887 755.496 105.219 755.652 104.65 755.951 104.196 756.263 103.726 756.704 103.371 757.287 103.129 757.87 102.888 758.581 102.76 759.405 102.76L762.319 102.76 762.319 103.84 759.305 103.84C758.509 103.84 757.912 104.025 757.486 104.409 757.06 104.793 756.86 105.29 756.86 105.901 756.86 106.527 757.074 107.024 757.514 107.394 757.955 107.763 758.552 107.948 759.305 107.948 759.775 107.948 760.215 107.863 760.642 107.692 761.068 107.522 761.423 107.238 761.722 106.825 762.006 106.413 762.163 105.859 762.191 105.134L762.603 105.717C762.546 106.456 762.376 107.081 762.077 107.564 761.779 108.062 761.367 108.432 760.855 108.687 760.343 108.958 759.746 109.085 759.05 109.085ZM762.418 108.815 762.418 105.816 762.191 105.816 762.191 102.277C762.191 101.537 761.992 100.969 761.608 100.571 761.224 100.173 760.613 99.9737 759.803 99.9737 759.419 99.9737 759.05 99.9737 758.666 99.9879 758.282 100.002 757.912 100.016 757.571 100.031 757.23 100.045 756.917 100.073 756.661 100.102L756.661 98.8649C756.932 98.8365 757.216 98.8081 757.514 98.7939 757.799 98.7654 758.097 98.7512 758.41 98.7512 758.723 98.7512 759.021 98.737 759.305 98.737 760.329 98.737 761.139 98.8649 761.765 99.1208 762.39 99.3767 762.845 99.7605 763.129 100.301 763.414 100.841 763.556 101.537 763.556 102.419L763.556 108.815 762.418 108.815Z" fill="#020203" transform="matrix(1.00002 0 0 1 0 0.245443)"/><path d="M771.019 109.128C770.294 109.128 769.625 109 769.028 108.73 768.431 108.46 767.92 108.09 767.479 107.607 767.053 107.124 766.711 106.569 766.484 105.944 766.257 105.319 766.143 104.665 766.143 103.954L766.143 103.684C766.143 103.001 766.257 102.362 766.484 101.736 766.711 101.111 767.038 100.557 767.451 100.073 767.877 99.5899 768.375 99.2061 768.972 98.9218 769.569 98.6375 770.237 98.4953 770.976 98.4953 771.815 98.4953 772.554 98.6801 773.193 99.0355 773.833 99.3909 774.345 99.9168 774.743 100.613 775.127 101.296 775.34 102.134 775.368 103.129L774.743 101.964 774.743 95.0553 776.15 95.0553 776.15 108.801 775.027 108.801 775.027 104.38 775.482 104.38C775.454 105.418 775.24 106.299 774.828 107.01 774.416 107.721 773.89 108.247 773.222 108.602 772.582 108.958 771.843 109.128 771.019 109.128ZM771.218 107.891C771.9 107.891 772.511 107.735 773.051 107.437 773.591 107.138 774.032 106.712 774.345 106.143 774.658 105.589 774.814 104.935 774.814 104.21L774.814 103.3C774.814 102.603 774.658 101.978 774.345 101.452 774.032 100.912 773.606 100.5 773.051 100.201 772.511 99.9026 771.886 99.7463 771.203 99.7463 770.464 99.7463 769.824 99.9311 769.27 100.286 768.73 100.642 768.303 101.125 768.005 101.751 767.706 102.362 767.564 103.058 767.564 103.826 767.564 104.622 767.721 105.319 768.019 105.93 768.318 106.541 768.744 107.024 769.299 107.365 769.853 107.707 770.478 107.891 771.218 107.891Z" fill="#020203" transform="matrix(1.00002 0 0 1 0 0.245443)"/><path d="M586.551 82.7594 586.551 61.2238 597.753 61.2238C599.302 61.2238 600.596 61.5081 601.633 62.0909 602.671 62.6595 603.453 63.4697 603.993 64.5074 604.533 65.5451 604.789 66.7676 604.789 68.1891 604.789 69.6106 604.505 70.8473 603.965 71.9134 603.41 72.9653 602.6 73.7898 601.534 74.3726 600.468 74.9554 599.16 75.2539 597.61 75.2539L591.242 75.2539 591.242 82.7594 586.551 82.7594ZM591.228 71.4301 596.971 71.4301C597.952 71.4301 598.719 71.1458 599.245 70.5772 599.785 70.0086 600.041 69.2268 600.041 68.2175 600.041 67.521 599.927 66.9524 599.7 66.4975 599.473 66.0426 599.131 65.6873 598.677 65.4314 598.222 65.1755 597.653 65.0618 596.971 65.0618L591.228 65.0618 591.228 71.4301Z" fill="#97468C" transform="matrix(1.00002 0 0 1 0 0.245443)"/><path d="M613.318 83.129C611.726 83.129 610.432 82.6883 609.437 81.8212 608.442 80.9541 607.945 79.4757 607.945 77.3862L607.945 66.2416 611.768 66.2416 611.768 76.6896C611.768 77.2724 611.84 77.7557 611.968 78.1538 612.11 78.5376 612.309 78.8503 612.565 79.0919 612.82 79.3336 613.147 79.5042 613.517 79.6037 613.887 79.7032 614.313 79.76 614.768 79.76 615.464 79.76 616.076 79.5895 616.63 79.2625 617.184 78.9214 617.625 78.4665 617.952 77.8695 618.279 77.2724 618.435 76.6043 618.435 75.8509L618.435 66.2416 622.259 66.2416 622.259 82.7452 619.089 82.7452 618.776 80.5419 618.563 80.5419C618.18 81.0394 617.739 81.4943 617.227 81.8781 616.715 82.2619 616.133 82.5746 615.464 82.7878 614.853 83.0153 614.114 83.129 613.318 83.129Z" fill="#97468C" transform="matrix(1.00002 0 0 1 0 0.245443)"/><path d="M633.972 83.129C632.21 83.129 630.745 82.8163 629.58 82.205 628.414 81.5938 627.533 80.6414 626.95 79.362 626.367 78.0827 626.069 76.4622 626.069 74.5005 626.069 72.5104 626.367 70.8899 626.95 69.6248 627.533 68.3597 628.414 67.4215 629.58 66.796 630.745 66.1848 632.21 65.872 633.972 65.872 635.564 65.872 636.901 66.1706 637.967 66.7676 639.047 67.3646 639.857 68.2744 640.397 69.5111 640.938 70.7478 641.208 72.3398 641.208 74.3157L641.208 75.4387 629.978 75.4387C630.021 76.4622 630.177 77.3293 630.447 78.0258 630.717 78.7224 631.143 79.2483 631.712 79.5895 632.281 79.9306 633.048 80.1012 633.987 80.1012 634.47 80.1012 634.91 80.0443 635.337 79.9164 635.749 79.7885 636.119 79.6037 636.431 79.3336 636.744 79.0777 636.986 78.7366 637.171 78.3386 637.341 77.9405 637.441 77.4857 637.441 76.9597L641.208 76.9597C641.208 78.0116 641.023 78.9214 640.653 79.689 640.284 80.4566 639.772 81.0963 639.118 81.608 638.464 82.1055 637.697 82.4893 636.815 82.731 635.948 83.0011 634.996 83.129 633.972 83.129ZM630.049 72.7379 637.242 72.7379C637.242 72.0413 637.156 71.4585 637 70.9752 636.844 70.4919 636.616 70.0939 636.346 69.7812 636.062 69.4684 635.721 69.241 635.323 69.1131 634.925 68.9709 634.47 68.914 633.972 68.914 633.162 68.914 632.465 69.0562 631.911 69.3263 631.357 69.5964 630.93 70.0228 630.646 70.5772 630.362 71.1458 630.163 71.8565 630.049 72.7379Z" fill="#97468C" transform="matrix(1.00002 0 0 1 0 0.245443)"/><path d="M644.989 82.7594 644.989 66.2416 648.187 66.2416 648.5 68.843 648.713 68.843C648.926 68.317 649.182 67.8337 649.481 67.3788 649.779 66.924 650.177 66.5686 650.661 66.2843 651.144 66 651.727 65.8578 652.423 65.8578 652.764 65.8578 653.063 65.8863 653.347 65.9573 653.632 66.0142 653.845 66.0853 653.987 66.1421L653.987 69.7527 652.821 69.7527C652.167 69.7527 651.599 69.838 651.101 70.0228 650.604 70.1934 650.177 70.4777 649.836 70.8473 649.495 71.2311 649.239 71.7002 649.069 72.2546 648.898 72.8232 648.813 73.477 648.813 74.2304L648.813 82.731 644.989 82.731Z" fill="#97468C" transform="matrix(1.00002 0 0 1 0 0.245443)"/><path d="M661.222 83.129C660.199 83.129 659.389 82.93 658.806 82.5177 658.223 82.1055 657.811 81.5938 657.569 80.9541 657.327 80.3144 657.214 79.6605 657.214 78.9924L657.214 69.3831 655.238 69.3831 655.238 66.2416 657.313 66.2416 658.01 61.6218 661.052 61.6218 661.052 66.2416 663.909 66.2416 663.909 69.3831 661.052 69.3831 661.052 78.6086C661.052 79.0493 661.165 79.3905 661.393 79.6321 661.62 79.8738 661.961 79.9875 662.431 79.9875L663.909 79.9875 663.909 82.6172C663.696 82.7025 663.44 82.7736 663.141 82.8589 662.843 82.93 662.516 83.0011 662.189 83.0437 661.819 83.1006 661.507 83.129 661.222 83.129Z" fill="#97468C" transform="matrix(1.00002 0 0 1 0 0.245443)"/><path d="M674.556 83.129C672.751 83.129 671.244 82.8163 670.036 82.205 668.827 81.5938 667.918 80.6414 667.306 79.362 666.695 78.0827 666.397 76.4622 666.397 74.5005 666.397 72.5104 666.695 70.8899 667.306 69.6248 667.918 68.3597 668.827 67.4215 670.036 66.796 671.244 66.1848 672.751 65.872 674.556 65.872 676.375 65.872 677.882 66.1848 679.091 66.796 680.299 67.4073 681.194 68.3597 681.806 69.6248 682.417 70.8899 682.715 72.5246 682.715 74.5005 682.715 76.4622 682.417 78.0827 681.806 79.362 681.194 80.6414 680.299 81.5796 679.091 82.205 677.882 82.8163 676.375 83.129 674.556 83.129ZM674.556 79.9875C675.565 79.9875 676.375 79.7885 676.987 79.4047 677.598 79.0209 678.053 78.4381 678.337 77.642 678.621 76.8602 678.764 75.8794 678.764 74.7137L678.764 74.2731C678.764 73.1075 678.621 72.1266 678.337 71.3448 678.053 70.563 677.598 69.9802 676.987 69.5822 676.375 69.1983 675.565 68.9993 674.556 68.9993 673.547 68.9993 672.736 69.1983 672.125 69.5822 671.514 69.966 671.059 70.5488 670.775 71.3448 670.49 72.1408 670.348 73.1075 670.348 74.2731L670.348 74.7137C670.348 75.8794 670.49 76.8602 670.775 77.642 671.059 78.4238 671.514 79.0067 672.125 79.4047 672.736 79.8027 673.547 79.9875 674.556 79.9875Z" fill="#97468C" transform="matrix(1.00002 0 0 1 0 0.245443)"/><path d="M699.375 82.7594 691.585 61.2238 696.632 61.2238 701.28 74.9696C701.365 75.1971 701.451 75.4813 701.564 75.8083 701.664 76.1352 701.778 76.448 701.877 76.7607 701.977 77.0734 702.062 77.3577 702.133 77.6136L702.318 77.6136C702.403 77.3862 702.488 77.1161 702.588 76.8176 702.687 76.519 702.773 76.2063 702.872 75.8936 702.972 75.5809 703.057 75.2823 703.142 75.0123L707.79 61.238 712.652 61.238 704.834 82.7736 699.375 82.7736Z" fill="#97468C" transform="matrix(1.00002 0 0 1 0 0.245443)"/><path d="M719.788 83.129C719.333 83.129 718.793 83.0721 718.196 82.9584 717.599 82.8447 717.03 82.6315 716.476 82.3187 715.921 82.006 715.467 81.5369 715.111 80.9257 714.756 80.3144 714.571 79.5042 714.571 78.4949 714.571 77.3719 714.827 76.4338 715.324 75.6804 715.822 74.9412 716.533 74.3584 717.442 73.9177 718.352 73.4913 719.447 73.1785 720.712 73.0079 721.977 72.8374 723.37 72.7379 724.877 72.7379L724.877 71.3875C724.877 70.9041 724.806 70.4777 724.664 70.0939 724.521 69.7243 724.251 69.4258 723.868 69.1983 723.484 68.9851 722.901 68.8714 722.119 68.8714 721.337 68.8714 720.74 68.9709 720.3 69.1557 719.859 69.3405 719.56 69.5679 719.39 69.8522 719.219 70.1223 719.134 70.4066 719.134 70.7051L719.134 71.1458 715.424 71.1458C715.41 71.0463 715.395 70.9326 715.395 70.8331 715.395 70.7336 715.395 70.6056 715.395 70.4635 715.395 69.5253 715.68 68.7008 716.248 68.0185 716.817 67.3362 717.599 66.796 718.608 66.4407 719.617 66.0853 720.769 65.8863 722.091 65.8863 723.597 65.8863 724.834 66.0995 725.815 66.5117 726.782 66.924 727.521 67.521 727.99 68.3028 728.473 69.0704 728.715 70.0228 728.715 71.1316L728.715 78.9214C728.715 79.3194 728.829 79.6037 729.056 79.7743 729.283 79.9448 729.539 80.0301 729.809 80.0301L730.819 80.0301 730.819 82.6599C730.605 82.7452 730.307 82.8447 729.909 82.9584 729.511 83.0721 729.013 83.129 728.431 83.129 727.89 83.129 727.393 83.0437 726.966 82.8589 726.54 82.6883 726.17 82.4182 725.886 82.0913 725.588 81.7501 725.389 81.3521 725.261 80.8972L725.076 80.8972C724.72 81.3379 724.294 81.7359 723.811 82.0771 723.313 82.4182 722.745 82.6883 722.091 82.8731 721.394 83.0295 720.641 83.129 719.788 83.129ZM720.939 79.9875C721.565 79.9875 722.133 79.888 722.617 79.7032 723.114 79.5184 723.512 79.2483 723.839 78.9214 724.166 78.5802 724.408 78.1822 724.593 77.6989 724.763 77.2156 724.863 76.6896 724.863 76.1352L724.863 75.3818C723.711 75.3818 722.645 75.4529 721.678 75.5951 720.712 75.7372 719.93 76.0073 719.361 76.4053 718.779 76.8033 718.494 77.3719 718.494 78.0969 718.494 78.4665 718.58 78.8076 718.764 79.0919 718.935 79.3762 719.219 79.5895 719.575 79.7458 719.944 79.9164 720.399 79.9875 720.939 79.9875Z" fill="#97468C" transform="matrix(1.00002 0 0 1 0 0.245443)"/><path d="M733.491 82.7594 733.491 66.2416 736.689 66.2416 737.002 68.843 737.215 68.843C737.429 68.317 737.685 67.8337 737.983 67.3788 738.281 66.924 738.68 66.5686 739.163 66.2843 739.646 66 740.229 65.8578 740.925 65.8578 741.267 65.8578 741.565 65.8863 741.849 65.9573 742.134 66.0142 742.347 66.0853 742.489 66.1421L742.489 69.7527 741.324 69.7527C740.67 69.7527 740.101 69.838 739.604 70.0228 739.106 70.1934 738.68 70.4777 738.338 70.8473 737.997 71.2311 737.741 71.7002 737.571 72.2546 737.4 72.8232 737.315 73.477 737.315 74.2304L737.315 82.731 733.491 82.731Z" fill="#97468C" transform="matrix(1.00002 0 0 1 0 0.245443)"/><path d="M749.284 83.129C748.829 83.129 748.289 83.0721 747.692 82.9584 747.095 82.8447 746.526 82.6315 745.972 82.3187 745.417 82.006 744.963 81.5369 744.607 80.9257 744.252 80.3144 744.067 79.5042 744.067 78.4949 744.067 77.3719 744.323 76.4338 744.82 75.6804 745.318 74.9412 746.029 74.3584 746.938 73.9177 747.848 73.4913 748.943 73.1785 750.208 73.0079 751.473 72.8374 752.866 72.7379 754.373 72.7379L754.373 71.3875C754.373 70.9041 754.302 70.4777 754.16 70.0939 754.017 69.7243 753.747 69.4258 753.364 69.1983 752.98 68.9851 752.397 68.8714 751.615 68.8714 750.848 68.8714 750.236 68.9709 749.796 69.1557 749.355 69.3405 749.056 69.5679 748.886 69.8522 748.715 70.1223 748.63 70.4066 748.63 70.7051L748.63 71.1458 744.92 71.1458C744.906 71.0463 744.891 70.9326 744.891 70.8331 744.891 70.7336 744.891 70.6056 744.891 70.4635 744.891 69.5253 745.176 68.7008 745.744 68.0185 746.313 67.3362 747.095 66.796 748.104 66.4407 749.113 66.0711 750.265 65.8863 751.587 65.8863 753.093 65.8863 754.33 66.0995 755.311 66.5117 756.278 66.924 757.017 67.521 757.486 68.3028 757.969 69.0704 758.211 70.0228 758.211 71.1316L758.211 78.9214C758.211 79.3194 758.325 79.6037 758.552 79.7743 758.779 79.9448 759.035 80.0301 759.305 80.0301L760.315 80.0301 760.315 82.6599C760.101 82.7452 759.803 82.8447 759.405 82.9584 759.007 83.0721 758.509 83.129 757.927 83.129 757.386 83.129 756.889 83.0437 756.462 82.8589 756.036 82.6883 755.666 82.4182 755.382 82.0913 755.084 81.7501 754.885 81.3521 754.757 80.8972L754.572 80.8972C754.216 81.3379 753.79 81.7359 753.307 82.0771 752.809 82.4182 752.241 82.6883 751.587 82.8731 750.904 83.0295 750.137 83.129 749.284 83.129ZM750.45 79.9875C751.075 79.9875 751.644 79.888 752.127 79.7032 752.624 79.5184 753.022 79.2483 753.349 78.9214 753.676 78.5802 753.918 78.1822 754.103 77.6989 754.273 77.2156 754.373 76.6896 754.373 76.1352L754.373 75.3818C753.221 75.3818 752.155 75.4529 751.189 75.5951 750.222 75.7372 749.44 76.0073 748.872 76.4053 748.289 76.8033 748.005 77.3719 748.005 78.0969 748.005 78.4665 748.09 78.8076 748.275 79.0919 748.445 79.3762 748.729 79.5895 749.085 79.7458 749.44 79.9164 749.895 79.9875 750.45 79.9875Z" fill="#97468C" transform="matrix(1.00002 0 0 1 0 0.245443)"/><path d="M769.427 83.129C768.232 83.129 767.181 83.0011 766.285 82.731 765.389 82.4751 764.636 82.1055 764.025 81.6506 763.414 81.1958 762.959 80.6556 762.66 80.0301 762.362 79.4189 762.205 78.7366 762.205 78.0116 762.205 77.9121 762.205 77.8126 762.22 77.7273 762.234 77.642 762.234 77.5852 762.234 77.5425L766.001 77.5425C766.001 77.5852 766.001 77.6278 766.001 77.6704 766.001 77.7131 766.001 77.7557 766.001 77.7984 766.015 78.367 766.2 78.8219 766.541 79.163 766.882 79.5042 767.308 79.76 767.863 79.9022 768.403 80.0443 768.986 80.1154 769.583 80.1154 770.123 80.1154 770.649 80.0586 771.132 79.9448 771.63 79.8311 772.028 79.6463 772.355 79.3762 772.682 79.1204 772.838 78.7792 772.838 78.3528 772.838 77.8126 772.625 77.3862 772.213 77.1019 771.8 76.8033 771.246 76.5617 770.564 76.3769 769.881 76.1921 769.156 75.9931 768.389 75.7799 767.692 75.5951 767.01 75.3818 766.313 75.1544 765.617 74.927 765.006 74.6285 764.451 74.2731 763.897 73.9177 763.442 73.4628 763.101 72.8942 762.76 72.3256 762.589 71.6291 762.589 70.7904 762.589 69.9802 762.76 69.2694 763.129 68.6582 763.485 68.0469 763.982 67.5494 764.608 67.1372 765.233 66.7249 765.972 66.4264 766.839 66.2132 767.692 66 768.63 65.9005 769.64 65.9005 770.621 65.9005 771.516 66 772.326 66.2132 773.137 66.4264 773.833 66.7249 774.43 67.1087 775.027 67.4926 775.482 67.9616 775.809 68.516 776.136 69.0704 776.292 69.6817 776.292 70.3498 776.292 70.4919 776.292 70.6483 776.278 70.7904 776.264 70.9326 776.264 71.0179 776.264 71.0463L772.525 71.0463 772.525 70.8331C772.525 70.435 772.412 70.0939 772.17 69.8096 771.928 69.5253 771.587 69.2979 771.132 69.1415 770.677 68.9709 770.123 68.8856 769.455 68.8856 768.957 68.8856 768.517 68.9283 768.133 69.0135 767.749 69.0988 767.451 69.2126 767.209 69.3547 766.967 69.4969 766.782 69.6674 766.655 69.8522 766.527 70.037 766.47 70.2503 766.47 70.4777 766.47 70.8757 766.626 71.1884 766.939 71.4159 767.252 71.6433 767.678 71.8423 768.204 72.0129 768.744 72.1835 769.313 72.3541 769.952 72.5531 770.706 72.7663 771.473 72.9795 772.269 73.1927 773.066 73.406 773.805 73.6903 774.487 74.0314 775.169 74.3726 775.709 74.8417 776.136 75.4387 776.548 76.0499 776.761 76.846 776.761 77.8552 776.761 78.8219 776.577 79.6463 776.207 80.3144 775.837 80.9967 775.326 81.5369 774.672 81.9492 774.018 82.3614 773.236 82.6599 772.355 82.8447 771.445 83.0295 770.478 83.129 769.427 83.129Z" fill="#97468C" transform="matrix(1.00002 0 0 1 0 0.245443)"/><path d="M619.089 107.593C616.644 103.172 606.566 97.1734 604.874 95.894 603.353 94.7852 605.102 92.5109 606.594 93.5628 609.764 95.9367 616.63 98.9644 620.013 97.0739 623.524 95.1406 625.827 91.4021 626.708 87.5925 626.893 86.8249 627.476 86.2136 628.301 86.3131 629.026 86.3984 629.765 87.1803 629.58 87.9479 628.414 92.7809 621.818 112.54 619.089 107.593Z" fill="#FCC633" transform="matrix(1.00002 0 0 1 0 0.245443)"/><path d="M620.099 91.2742C619.942 92.1413 619.53 92.9089 618.819 93.4348 618.251 93.9181 617.526 94.2024 616.786 94.2451 615.99 94.2877 615.223 94.1882 614.526 93.8328 614.185 93.648 613.83 93.4775 613.545 93.2074 613.176 92.8378 612.934 92.5251 612.664 92.0844 612.479 91.7432 612.536 91.2742 612.664 90.9756 612.792 90.7198 613.218 90.208 613.218 90.208 613.275 89.4262 613.645 88.6444 614.071 88.09 614.612 87.4645 615.308 87.0381 616.118 86.8675 616.929 86.6827 617.824 86.9386 618.506 87.3935 619.103 87.7915 619.587 88.4454 619.828 89.0708 620.099 89.7389 620.241 90.5492 620.099 91.2742Z" fill="#FCC633" transform="matrix(1.00002 0 0 1 0 0.245443)"/><path d="M646.354 94.5578C646.339 94.6715 646.325 94.771 646.325 94.8563 646.112 96.3489 645.287 97.6993 644.207 98.7228 643.283 99.5899 642.103 100.158 641.279 101.125 637.242 105.901 641.08 107.181 640.568 108.73 640.042 110.308 635.721 109.583 634.797 108.972 630.447 106.157 630.148 92.5535 630.49 88.3743 630.717 85.5455 633.688 85.3465 632.792 88.2322 632.465 89.2698 632.309 94.4725 632.664 95.5671 633.603 98.4101 635.252 99.1492 636.773 99.334 638.962 99.5899 640.326 99.3625 642.913 97.2018 645.003 95.4533 644.52 93.7191 645.529 93.1363 646.396 92.653 646.41 93.8613 646.354 94.5578Z" fill="#E84189" transform="matrix(1.00002 0 0 1 0 0.245443)"/><path d="M634.982 94.3304C635.053 95.0269 635.308 95.6808 635.849 96.1783 636.289 96.5905 636.858 96.8464 637.427 96.9175 638.038 97.0312 638.692 97.017 639.246 96.7611 639.573 96.6616 639.843 96.5052 640.07 96.3062 640.383 96.0646 640.611 95.8229 640.838 95.4818 641.023 95.2401 641.009 94.8705 640.952 94.5862 640.909 94.501 640.867 94.4014 640.81 94.3161 640.611 94.0176 640.483 93.6907 640.426 93.3495 640.241 92.3261 639.559 91.4163 638.493 91.1036 637.825 90.8904 637.128 91.0609 636.531 91.3594 636.019 91.6153 635.621 92.0986 635.351 92.6246 635.081 93.1079 634.91 93.7618 634.982 94.3304Z" fill="#E84189" transform="matrix(1.00002 0 0 1 0 0.245443)"/><path d="M586.764 94.7C585.528 92.127 587.788 91.729 589.28 94.4014 597.966 109.967 600.368 91.2031 603.453 94.572 604.135 95.3254 599.771 104.082 597.682 110.578 597.212 112.056 595.279 111.658 586.764 94.7Z" fill="#08AEBE" transform="matrix(1.00002 0 0 1 0 0.245443)"/><path d="M663.71 23.4404C647.874 32.0547 625.671 42.9007 586.85 48.3877 586.85 48.3877 585.94 48.5156 586.011 49.5107 586.096 50.5057 586.85 50.4915 586.85 50.4915 610.077 47.6627 640.753 44.7771 677.37 29.3396 677.37 29.3396 668.898 25.9849 663.71 23.4404Z" fill="#08AEBE" transform="matrix(1.00002 0 0 1 0 0.245443)"/><path d="M667.875 20.9528C708.672 39.4465 749.128 47.2931 775.795 50.5341 775.795 50.5341 776.747 50.6194 776.747 49.5391 776.747 48.4587 775.795 48.3877 775.795 48.3877 716.774 40.0293 688.558 17.9393 682.644 12.765 681.834 12.0543 681.635 11.8979 681.393 11.8979 681.166 11.8979 680.91 12.0969 679.972 12.8219 677.655 14.5987 672.935 18.0672 668.017 20.8818L667.875 20.9528Z" fill="#08AEBE" transform="matrix(1.00002 0 0 1 0 0.245443)"/><text fill="#08AEBE" font-family="Arial,Arial_MSFontService,sans-serif" font-weight="400" font-size="10" transform="matrix(1.42153 0 0 1.42149 38.404 39)">www</text><text fill="#08AEBE" font-family="Arial,Arial_MSFontService,sans-serif" font-weight="400" font-size="10" transform="matrix(1.42153 0 0 1.42149 68.2561 39)">.</text><text fill="#08AEBE" font-family="Arial,Arial_MSFontService,sans-serif" font-weight="400" font-size="10" transform="matrix(1.42153 0 0 1.42149 72.5207 39)">ptovaras</text><text fill="#08AEBE" font-family="Arial,Arial_MSFontService,sans-serif" font-weight="400" font-size="10" transform="matrix(1.42153 0 0 1.42149 127.96 39)">.</text><text fill="#08AEBE" font-family="Arial,Arial_MSFontService,sans-serif" font-weight="400" font-size="10" transform="matrix(1.42153 0 0 1.42149 132.225 39)">cl</text></g></svg>