<svg width="779" height="129" xmlns="http://www.w3.org/2000/svg" xmlns:xlink="http://www.w3.org/1999/xlink" xml:space="preserve" overflow="hidden"><defs><clipPath id="clip0"><rect x="0" y="0" width="779" height="129"/></clipPath></defs><g clip-path="url(#clip0)"><path d="M0 0 779 0 779 128.331-2.73781e-05 128.331Z" fill="#55BEC4" fill-opacity="0.17" transform="matrix(1 0 0 1.00078 0 0.284305)"/><path d="M14.1297 42.9079C13.0784 42.9079 12.2374 42.0528 12.2374 41.0155L12.2374 20.9984C12.2374 14.9007 17.1996 9.93848 23.2973 9.93848L43.3004 9.93848C44.3517 9.93848 45.1927 10.7936 45.1927 11.8309 45.1927 12.8682 44.3517 13.7372 43.3004 13.7372L23.2973 13.7372C19.2882 13.7372 16.0221 17.0033 16.0221 21.0124L16.0221 41.0155C16.0221 42.0528 15.1811 42.9079 14.1297 42.9079Z" fill="#08AEBE" transform="matrix(1 0 0 1.00078 0 0.284305)"/><path d="M762.656 86.0681C763.707 86.0681 764.548 86.9231 764.548 87.9604L764.548 107.964C764.548 114.061 759.586 119.023 753.488 119.023L733.485 119.023C732.434 119.023 731.592 118.168 731.592 117.131 731.592 116.08 732.448 115.239 733.485 115.239L753.488 115.239C757.497 115.239 760.763 111.973 760.763 107.964L760.763 87.9604C760.749 86.9091 761.604 86.0681 762.656 86.0681Z" fill="#08AEBE" transform="matrix(1 0 0 1.00078 0 0.284305)"/><path d="M590.085 35.03 592.3 40.9034 598.65 38.7166 597.052 32.9133 597.668 32.675 596.365 28.0913 587.323 31.077 589.16 35.2683 590.085 35.03ZM589.692 34.273 588.473 31.3994 590.253 30.8527 590.87 32.1984 591.795 31.9461 591.304 30.5443 592.944 29.9977 593.547 31.3994 594.458 31.091 594.094 29.7453 595.748 29.1426 596.799 32.0723" fill="#878787" transform="matrix(1 0 0 1.00078 0 0.284305)"/><path d="M600.71 31.876 601.383 38.1138 608.083 37.6092 607.985 31.5957 608.644 31.5116 608.532 26.7596 599.042 27.3764 599.757 31.89 600.71 31.876ZM601.832 27.909 602.084 29.3809 603.023 29.3669 602.911 27.867 604.831 27.7408 604.887 29.2828 605.855 29.2127 605.841 27.7969 607.593 27.6147 607.859 30.7546 600.416 31.3153 599.967 28.0072 601.832 27.909Z" fill="#878787" transform="matrix(1 0 0 1.00078 0 0.284305)"/><path d="M627.484 40.5809 629.713 34.8337 630.456 35.03 632.026 30.5163 623.054 28.0913 622.073 32.5208 622.62 32.8292 621.078 38.7727 627.484 40.5809ZM623.559 28.9604 625.339 29.479 625.101 30.9368 625.998 31.2312 626.376 29.7874 628.241 30.236 627.792 31.7499 628.731 32.0022 629.18 30.6845 630.89 31.091 630.133 34.1188 622.998 32.0022 623.559 28.9604Z" fill="#878787" transform="matrix(1 0 0 1.00078 0 0.284305)"/><path d="M610.985 37.5111 617.854 38.2821 618.723 32.1704 619.634 32.2265 620.489 27.6427 611.055 26.6334 610.789 31.2312 611.406 31.2312 610.985 37.5111ZM611.714 27.6147 613.564 27.7829 613.62 29.2687 614.56 29.3949 614.644 27.909 616.564 28.0212 616.41 29.5631 617.377 29.6332 617.559 28.2455 619.508 28.3155 619.171 31.4275 611.574 30.7546 611.714 27.6147Z" fill="#878787" transform="matrix(1 0 0 1.00078 0 0.284305)"/><path d="M592.524 42.0388 594.627 47.5197 594.879 47.4215C599.589 45.6974 604.635 44.8143 609.85 44.8143 618.456 44.8143 624.68 47.2393 624.947 47.3514L625.213 47.4636 627.063 42.0528 626.811 41.9687C621.232 39.838 615.429 38.7587 609.527 38.7587 600.402 38.7587 593.982 41.3659 592.79 41.8986L592.524 42.0388Z" fill="#878787" transform="matrix(1 0 0 1.00078 0 0.284305)"/><path d="M598.537 84.442C598.537 84.442 599.028 84.0075 599.084 83.7271 599.084 83.7271 600.612 86.3484 602.603 83.6991 602.603 83.6991 604.215 86.3204 606.065 83.6991 606.065 83.6991 607.369 86.2082 609.611 83.8252L609.611 85.8157C609.611 85.8157 608.027 88.4791 606.037 85.7176 606.037 85.7176 604.537 88.6052 602.631 85.6896 602.631 85.6896 602.196 87.0493 600.752 86.9231 600.752 86.9231 599.336 85.8298 598.537 84.442" fill="#878787" transform="matrix(1 0 0 1.00078 0 0.284305)"/><path d="M609.681 87.638 609.681 89.8808C609.681 89.8808 606.345 90.3574 602.322 87.9744 602.322 87.9744 602.49 88.0165 602.532 87.582 602.532 87.582 603.878 90.1332 606.037 87.6661 606.037 87.6801 607.677 90.3294 609.681 87.638" fill="#878787" transform="matrix(1 0 0 1.00078 0 0.284305)"/><path d="M609.597 81.3581C609.597 81.3581 611.237 84.5121 613.102 81.5264 613.102 81.5264 614.826 84.47 616.564 81.4422 616.564 81.4422 618.162 84.5542 619.984 81.4843 619.984 81.4843 620.461 82.9141 621.891 82.6057 621.891 82.6057 620.924 84.6102 620.727 84.7644 620.727 84.7644 620.082 84.3159 619.942 83.8112 619.942 83.8112 618.513 86.4465 616.522 83.7692 616.522 83.7692 615.218 86.5306 613.06 83.8953 613.06 83.8953 611.714 86.5166 609.597 83.8112L609.597 81.3581Z" fill="#878787" transform="matrix(1 0 0 1.00078 0 0.284305)"/><path d="M609.625 85.8998 609.625 87.624C609.625 87.624 611.251 90.6098 613.102 87.8343 613.102 87.8343 614.966 90.2733 616.438 87.7502 616.438 87.7502 616.634 88.2268 617.083 88.1567 617.083 88.1567 617.531 87.8483 618.597 86.9652 618.597 86.9652 617.321 87.3717 616.522 85.7597 616.522 85.7597 614.98 88.437 613.102 85.8017 613.102 85.8157 611.854 88.3669 609.625 85.8998" fill="#878787" transform="matrix(1 0 0 1.00078 0 0.284305)"/><path d="M597.823 63.2334C597.823 63.2334 597.907 64.3968 599.028 65.4342 599.028 65.4342 598.72 65.9108 597.472 65.0417 597.472 65.0417 597.738 65.9108 599.112 66.5556 599.112 66.5556 599.028 66.9901 597.724 66.8079 597.724 66.8079 598.201 67.4527 599.154 67.719 599.154 67.719 599.112 68.1115 597.809 68.1115 597.809 68.1115 598.411 68.6722 599.154 69.1068 599.154 69.1068 598.846 69.5834 598.201 69.7095 598.201 69.7095 599.364 69.9198 599.547 69.9198 599.547 69.9198 599.505 70.5646 599.07 70.5646 599.07 70.5646 599.897 70.4384 600.107 70.3543 600.318 70.2702 600.107 70.7468 599.939 70.9571 599.771 71.1674 599.897 71.3496 600.107 71.2655 600.107 71.2655 601.103 70.2702 601.579 70.4384 601.579 70.4384 601.972 70.4384 601.663 71.7421 601.663 71.7421 600.36 72.6532 600.192 73.4242 600.192 73.4242 600.107 73.7746 599.589 73.9849 599.589 73.9849 598.341 74.2933 598.159 74.3774 598.159 74.3774 598.636 74.5035 598.888 74.5035L598.411 74.854 599.056 74.7278 598.972 75.4147 599.406 74.9801 599.673 75.3306 599.981 74.4615C599.981 74.4615 600.332 73.8587 600.766 73.7326 600.766 73.7326 601.537 73.3401 601.593 72.7794 601.593 72.7794 601.944 72.0925 602.238 72.8635 602.238 72.8635 602.547 73.8167 602.322 74.5876 602.322 74.5876 602.056 75.4988 601.453 74.84 601.453 74.84 601.187 74.4895 601.369 74.3213 601.369 74.3213 601.159 73.9288 600.892 74.5736 600.892 74.5736 600.808 75.2605 601.846 75.5268 602.883 75.7932 602.799 76.3959 602.799 76.3959 602.799 76.3959 603.317 75.6109 603.878 75.5268 604.439 75.4427 605.042 75.4427 604.747 74.4054 604.747 74.4054 604.355 74.097 604.439 74.5316 604.439 74.5316 604.313 75.4007 603.752 74.882 603.752 74.882 603.191 73.9288 603.542 73.1158 603.542 73.1158 603.71 72.7233 603.85 72.513 603.85 72.513 603.934 73.5503 605.448 73.8587 605.448 73.8587 605.925 74.111 606.051 74.7278L606.051 75.2044 606.359 74.9521 606.92 75.7371 606.71 74.868C606.71 74.868 607.144 74.8259 607.312 75.1343 607.312 75.1343 607.481 74.7839 607.046 74.6157 607.046 74.6157 607.088 74.3073 607.523 74.4895 607.523 74.4895 607.439 74.055 606.359 73.9288 606.359 73.9288 606.009 74.055 605.574 73.242 605.574 73.242 605.308 72.1626 604.411 71.8963 604.411 71.8963 603.85 71.2094 604.243 70.7328 604.243 70.7328 604.243 70.5646 604.677 70.9431 604.677 70.9431 605.28 71.2515 605.981 71.2935 605.981 71.2935 605.336 70.6908 605.588 70.4665 605.588 70.4665 606.107 70.859 606.892 70.5506 606.892 70.5506 606.163 70.2422 606.331 69.8217 606.331 69.8217 607.102 69.8637 607.579 69.6114 607.579 69.6114 607.929 69.4432 607.186 69.3591 607.186 69.3591 606.542 69.1909 606.359 68.7563 606.359 68.7563 607.705 68.6722 607.999 68.0695 607.999 68.0695 607.088 68.3358 606.57 68.0274 606.57 68.0274 606.303 67.719 606.78 67.719 606.78 67.719 607.943 67.2845 608.21 66.5135 608.21 66.5135 607.34 67.1583 606.864 66.906 606.864 66.906 608.252 66.0369 608.644 64.6632 608.644 64.6632 607.691 65.5323 607.004 65.5323 607.004 65.5323 606.359 65.6164 607.046 65.0557 607.046 65.0557 608.083 63.9763 607.957 63.0652 607.957 63.0652 606.962 64.6632 606.135 64.6632 606.135 64.6632 605.658 64.6632 606.135 63.9763 606.135 63.9763 604.705 64.0604 604.621 65.8827 604.621 65.8827 604.971 68.4339 604.271 68.3919 603.584 68.3498 603.444 68.2657 603.444 67.6629 603.444 67.0602 603.724 65.7986 603.163 65.5883 602.603 65.3781 602.364 65.5883 602.042 65.7846 601.719 65.9808 601.523 65.9528 601.439 65.9808 601.439 65.9808 601.201 66.2472 601.635 66.4154 601.635 66.4154 602.462 66.3453 602.434 66.934 602.434 66.934 602.701 68.1816 601.705 68.3218 601.705 68.3218 601.033 68.4339 601.103 67.6489 601.103 67.6489 601.467 65.0977 600.584 64.4109 600.584 64.4109 599.757 63.8642 599.547 63.8642 599.547 63.8642 599.098 63.7801 599.673 64.2707 599.673 64.2707 600.584 64.9856 599.435 64.6351 599.421 64.5791 598.467 64.1305 597.823 63.2334" fill="#878787" transform="matrix(1 0 0 1.00078 0 0.284305)"/><path d="M596.603 80.3629C596.603 80.3629 598.355 80.9236 599.21 79.2835 599.21 79.2835 600.724 82.017 602.645 79.3396 602.645 79.3396 604.285 82.0871 606.107 79.3116 606.107 79.3116 607.691 81.9048 609.541 79.3676L609.541 81.3581C609.541 81.3581 608.28 84.7925 605.981 81.8067 605.981 81.8067 604.509 84.4981 602.518 81.8488 602.518 81.8488 601.047 84.5121 599.056 81.8207 599.056 81.8207 598.706 83.2225 597.542 82.9702 597.542 82.9561 596.477 81.6245 596.603 80.3629" fill="#878787" transform="matrix(1 0 0 1.00078 0 0.284305)"/><path d="M609.569 58.7057 609.541 79.3817C611.728 81.6245 612.99 79.1574 612.99 79.1574 614.966 81.9188 616.452 79.1854 616.452 79.1854 616.466 79.2134 616.494 79.2415 616.508 79.2695 618.372 81.7927 619.886 79.1293 619.886 79.1293 620.713 80.7414 622.143 80.2087 622.143 80.2087L622.437 58.7197 609.569 58.7197ZM619.9 67.0462C620.377 67.3125 621.246 66.6537 621.246 66.6537 620.98 67.4387 619.816 67.8592 619.816 67.8592 619.34 67.8592 619.606 68.1676 619.606 68.1676 620.125 68.476 621.036 68.2096 621.036 68.2096 620.727 68.8124 619.396 68.8965 619.396 68.8965 619.564 69.331 620.223 69.4993 620.223 69.4993 620.952 69.5834 620.615 69.7656 620.615 69.7656 620.139 70.0179 619.368 69.9759 619.368 69.9759 619.199 70.4104 619.928 70.7048 619.928 70.7048 619.143 71.0132 618.625 70.6207 618.625 70.6207 618.372 70.8309 619.017 71.4477 619.017 71.4477 618.33 71.4056 617.714 71.0973 617.714 71.0973 617.279 70.7048 617.279 70.887 617.279 70.887 616.886 71.3636 617.447 72.0505 617.447 72.0505 618.358 72.3168 618.611 73.3961 618.611 73.3961 619.045 74.2232 619.396 74.083 619.396 74.083 620.475 74.2092 620.559 74.6437 620.559 74.6437 620.125 74.4755 620.082 74.7699 620.082 74.7699 620.517 74.9381 620.349 75.2885 620.349 75.2885 620.181 74.9801 619.746 75.0222 619.746 75.0222L619.956 75.8913 619.396 75.1063 619.087 75.3586 619.087 74.882C618.961 74.2793 618.484 74.0129 618.484 74.0129 616.971 73.7045 616.886 72.6672 616.886 72.6672 616.76 72.8775 616.578 73.27 616.578 73.27 616.228 74.097 616.788 75.0502 616.788 75.0502 617.349 75.5689 617.475 74.6998 617.475 74.6998 617.391 74.2652 617.784 74.5736 617.784 74.5736 618.092 75.6109 617.475 75.6109 616.915 75.695 616.354 75.7791 615.835 76.5641 615.835 76.5641 615.835 76.5641 615.919 75.9614 614.882 75.695 613.845 75.4427 613.929 74.7418 613.929 74.7418 614.195 74.097 614.405 74.4895 614.405 74.4895 614.237 74.6577 614.489 75.0082 614.489 75.0082 615.092 75.653 615.359 74.7559 615.359 74.7559 615.569 73.9709 615.274 73.0317 615.274 73.0317 614.966 72.2467 614.63 72.9476 614.63 72.9476 614.588 73.5083 613.803 73.9008 613.803 73.9008 613.368 74.0269 613.018 74.6297 613.018 74.6297L612.709 75.4988 612.443 75.1483 612.008 75.5829 612.092 74.896 611.448 75.0222 611.924 74.6717C611.658 74.6717 611.195 74.5456 611.195 74.5456 611.364 74.4615 612.625 74.1531 612.625 74.1531 613.144 73.9428 613.228 73.5924 613.228 73.5924 613.396 72.8074 614.7 71.9103 614.7 71.9103 615.008 70.6066 614.616 70.6066 614.616 70.6066 614.139 70.4384 613.144 71.4337 613.144 71.4337 612.934 71.5178 612.793 71.3496 612.976 71.1253 613.144 70.915 613.368 70.4384 613.144 70.5225 612.976 70.5926 612.457 70.6767 612.219 70.7188 612.191 70.7328 612.149 70.7328 612.107 70.7328 612.107 70.7328 612.149 70.7188 612.219 70.7188 612.541 70.6207 612.583 70.088 612.583 70.088 612.415 70.088 611.237 69.8777 611.237 69.8777 611.882 69.7516 612.191 69.275 612.191 69.275 611.448 68.8404 610.845 68.2797 610.845 68.2797 612.149 68.2797 612.191 67.8872 612.191 67.8872 611.237 67.6209 610.761 66.9761 610.761 66.9761 612.064 67.1443 612.149 66.7238 612.149 66.7238 610.761 66.079 610.508 65.2099 610.508 65.2099 611.756 66.079 612.064 65.6024 612.064 65.6024 610.943 64.5651 610.859 63.4016 610.859 63.4016 611.504 64.2847 612.457 64.7473 612.457 64.7473 613.606 65.0977 612.695 64.3828 612.695 64.3828 612.107 63.8782 612.569 63.9763 612.569 63.9763 612.779 63.9763 613.606 64.523 613.606 64.523 614.489 65.2099 614.125 67.7611 614.125 67.7611 614.055 68.5461 614.728 68.4339 614.728 68.4339 615.723 68.3078 615.457 67.0462 615.457 67.0462 615.485 66.4574 614.658 66.5275 614.658 66.5275 614.223 66.3593 614.461 66.093 614.461 66.093 614.546 66.0649 614.742 66.093 615.064 65.8967 615.387 65.7005 615.625 65.4902 616.186 65.7005 616.746 65.9108 616.466 67.1723 616.466 67.7751 616.466 68.3778 616.592 68.462 617.293 68.504 617.98 68.5461 617.643 65.9949 617.643 65.9949 617.728 64.1726 619.157 64.0885 619.157 64.0885 618.681 64.7753 619.157 64.7753 619.157 64.7753 619.984 64.7753 620.98 63.1773 620.98 63.1773 621.106 64.0885 620.068 65.1678 620.068 65.1678 619.382 65.7285 620.026 65.6444 620.026 65.6444 620.713 65.6444 621.666 64.7753 621.666 64.7753 621.274 66.1771 619.9 67.0462 619.9 67.0462Z" fill="#878787" transform="matrix(1 0 0 1.00078 0 0.284305)"/><path d="M585.543 48.5149 585.795 80.5451C585.725 90.2733 592.187 95.3197 597.626 97.8428 603.486 100.562 609.485 100.997 609.541 100.997 622.059 99.8193 627.848 94.6048 630.498 90.4415 633.329 85.9839 633.273 81.7366 633.259 81.5544L633.259 48.5149 606.317 48.5149 606.499 48.6551C606.513 48.6691 606.934 48.9495 607.845 48.9074 607.873 48.9074 608.364 48.8794 608.728 49.2158 608.953 49.4261 609.065 49.7204 609.065 50.0989 609.009 50.5755 608.967 51.1222 608.995 51.2063L609.121 51.4166 608.868 51.3885C608.434 51.3745 606.289 51.2343 606.289 50.3652L606.289 48.5149 585.543 48.5149ZM590.239 50.3232C590.281 50.2951 591.136 49.6644 592.145 49.8185 592.734 49.9026 593.253 50.2531 593.673 50.8278L593.828 51.0381 593.561 51.0381C593.547 51.0381 592.075 51.0381 591.543 51.2624L591.473 51.2904 591.402 51.2343C591.066 50.954 590.505 50.5615 590.309 50.5615L589.903 50.5615 590.239 50.3232ZM591.248 52.1875C591.234 52.1875 590.253 52.5099 589.818 53.2108L589.706 53.393 589.594 53.1968C589.58 53.1688 589.118 52.3978 589.664 51.8511 590.197 51.3184 591.234 51.8932 591.29 51.9212L591.557 52.0754 591.248 52.1875ZM591.445 53.9678C591.29 54.3322 590.926 54.4584 590.912 54.4584L590.87 54.4724 590.828 54.4584C590.547 54.3743 590.379 54.2201 590.309 54.0098 590.155 53.5472 590.603 52.9585 590.617 52.9305L590.632 52.9164C590.716 52.8463 590.94 52.6361 591.164 52.7342 591.346 52.8183 591.374 53.0426 591.374 53.1267 591.529 53.4351 591.543 53.7295 591.445 53.9678ZM591.108 55.1873 591.627 55.3695 591.094 55.4536C590.617 55.5237 590.253 55.5517 589.973 55.5517 589.524 55.5517 589.314 55.4817 589.216 55.3975 589.09 55.3555 588.949 55.0611 588.865 53.351L588.823 52.4538 589.132 53.2949C589.608 54.6266 591.094 55.1733 591.108 55.1873ZM589.524 66.7658C589.552 66.7658 590.043 66.7378 590.407 67.0742 590.632 67.2845 590.744 67.5788 590.744 67.9573 590.688 68.4339 590.646 68.9806 590.674 69.0647L590.8 69.275 590.547 69.2469C590.113 69.2329 587.968 69.0927 587.968 68.2236L587.968 66.3453 588.192 66.5135C588.178 66.5135 588.585 66.8079 589.524 66.7658L589.524 66.7658ZM588.164 69.289C588.164 69.289 588.585 69.5834 589.51 69.5413L589.51 69.5413C589.538 69.5413 590.029 69.5133 590.393 69.8497 590.617 70.06 590.73 70.3543 590.73 70.7328 590.674 71.2094 590.632 71.7561 590.66 71.8402L590.786 72.0505 590.533 72.0224C590.099 72.0084 587.954 71.8682 587.954 70.9991L587.954 69.1208 588.164 69.289ZM590.716 74.5596 590.842 74.7699 590.589 74.7418C590.155 74.7278 588.01 74.5876 588.01 73.7186L588.01 71.8402 588.235 72.0084C588.235 72.0084 588.655 72.3028 589.58 72.2607 589.608 72.2607 590.099 72.2327 590.463 72.5691 590.688 72.7794 590.8 73.0737 590.8 73.4522 590.744 73.9148 590.688 74.4615 590.716 74.5596ZM588.178 80.7694C588.991 80.1526 590.253 80.9656 590.309 80.9937L590.603 81.1759 590.267 81.232C590.253 81.232 588.683 81.5264 587.968 83.0823L587.8 83.4608 587.716 83.0543C587.688 82.9982 587.365 81.3862 588.178 80.7694ZM591.248 82.2693C591.234 82.2693 590.253 82.5917 589.818 83.2926L589.706 83.4748 589.594 83.2786C589.58 83.2505 589.118 82.4796 589.664 81.9329 590.197 81.4002 591.234 81.9749 591.29 82.003L591.557 82.1571 591.248 82.2693ZM591.445 84.0495C591.29 84.414 590.926 84.5401 590.912 84.5401L590.87 84.5542 590.828 84.5401C590.547 84.456 590.379 84.3018 590.309 84.0916 590.155 83.615 590.603 83.0403 590.617 83.0122L590.632 82.9982C590.716 82.9281 590.94 82.7178 591.164 82.816 591.346 82.9001 591.374 83.1244 591.374 83.2085 591.529 83.5309 591.543 83.8112 591.445 84.0495ZM589.118 83.3767C589.608 84.7084 591.094 85.2691 591.108 85.2691L591.627 85.4513 591.094 85.5354C590.617 85.6055 590.253 85.6335 589.973 85.6335 589.524 85.6335 589.314 85.5634 589.216 85.4793 589.09 85.4373 588.949 85.1429 588.865 83.4327L588.823 82.5356 589.118 83.3767ZM591.557 85.0448C591.388 84.9466 591.346 84.8065 591.346 84.7925L591.318 84.6803 591.431 84.6383C591.963 84.414 591.795 83.3206 591.683 82.9141L591.627 82.6898 591.851 82.7599C592.229 82.858 592.482 83.0683 592.608 83.3627 592.902 84.0495 592.426 84.9747 592.398 85.0167L592.37 85.0728 592.314 85.0868C592.173 85.1289 592.047 85.1429 591.921 85.1429 591.781 85.1289 591.655 85.1008 591.557 85.0448ZM591.543 81.3441 591.473 81.3722 591.402 81.3161C591.066 81.0357 590.505 80.6432 590.309 80.6432L589.903 80.6432 590.225 80.3909C590.267 80.3629 591.122 79.7321 592.131 79.8863 592.72 79.9704 593.239 80.3208 593.659 80.8956L593.813 81.1058 593.547 81.1058C593.547 81.1198 592.075 81.1198 591.543 81.3441ZM591.543 74.7979 591.29 74.8119 591.402 74.6017C591.431 74.4895 591.374 73.9568 591.332 73.5083 591.332 73.1158 591.445 72.8214 591.669 72.6112 592.019 72.2747 592.524 72.3028 592.552 72.3028 593.477 72.3588 593.898 72.0505 593.912 72.0505L594.122 71.8963 594.122 73.7746C594.108 74.6437 591.963 74.7839 591.543 74.7979ZM591.599 72.0785 591.346 72.0925 591.459 71.8822C591.487 71.7701 591.445 71.2374 591.388 70.7889 591.388 70.3964 591.501 70.102 591.725 69.8917 592.075 69.5553 592.58 69.5834 592.608 69.5834 593.533 69.6394 593.954 69.331 593.968 69.331L594.178 69.1768 594.178 71.0552C594.178 71.9243 592.033 72.0645 591.599 72.0785ZM591.599 69.303 591.346 69.317 591.459 69.1068C591.487 68.9946 591.445 68.462 591.388 68.0134 591.388 67.6209 591.501 67.3265 591.725 67.1163 592.075 66.7798 592.58 66.8079 592.608 66.8079 593.533 66.8639 593.954 66.5556 593.968 66.5556L594.178 66.4014 594.178 68.2797C594.178 69.1488 592.033 69.289 591.599 69.303ZM591.977 57.1778 592.019 57.9488 593.757 58.0048 592.019 59.743 592.019 61.369 590.954 61.4391 590.856 57.2759C590.113 57.1077 589.748 56.3087 589.734 56.2807L589.636 56.0564 589.889 56.0984C592.496 56.5049 593.87 54.3462 593.884 54.3322L594.108 53.9818 594.136 54.3883C594.262 56.0844 592.426 56.9956 591.977 57.1778ZM592.398 54.921 592.37 54.977 592.314 54.991C592.173 55.0331 592.047 55.0471 591.921 55.0471 591.781 55.0471 591.655 55.0191 591.557 54.963 591.388 54.8649 591.346 54.7247 591.346 54.7107L591.318 54.5985 591.431 54.5565C591.963 54.3322 591.795 53.2388 591.683 52.8323L591.627 52.608 591.851 52.6781C592.229 52.7763 592.482 52.9865 592.608 53.2809 592.902 53.9537 592.412 54.8789 592.398 54.921ZM588.178 50.6876C588.991 50.0709 590.253 50.8839 590.309 50.9119L590.603 51.0941 590.267 51.1502C590.253 51.1502 588.683 51.4446 587.968 53.0005L587.8 53.379 587.716 52.9725C587.688 52.9164 587.365 51.2904 588.178 50.6876ZM588.221 53.0005 588.515 52.594 588.459 53.0987C588.459 53.1127 588.291 54.935 589.23 56.0564L589.384 56.2526 589.132 56.2807C589.118 56.2807 588.991 56.2947 588.795 56.2947 588.375 56.2947 587.66 56.2106 587.365 55.7059 587.043 55.1312 587.323 54.2201 588.221 53.0005ZM589.146 86.3624C589.132 86.3624 589.005 86.3764 588.809 86.3764 588.389 86.3764 587.674 86.2923 587.379 85.7877 587.043 85.227 587.323 84.3159 588.221 83.0963L588.515 82.6898 588.459 83.1944C588.459 83.2085 588.291 85.0308 589.23 86.1522L589.384 86.3484 589.146 86.3624ZM592.019 88.0305 593.757 88.0866 592.019 89.8248 592.019 91.4508 590.954 91.5209 590.856 87.3577C590.113 87.1895 589.748 86.3905 589.734 86.3624L589.636 86.1381 589.889 86.1802C592.496 86.5867 593.87 84.428 593.884 84.414L594.108 84.0635 594.136 84.47C594.262 86.1942 592.426 87.1054 591.977 87.3016L592.019 88.0305ZM594.304 83.3627 594.29 83.3907C594.22 83.5309 593.533 84.7224 593.029 84.8205L592.706 84.8906 592.888 84.6242C592.93 84.5682 593.729 83.2926 592.019 81.7927L591.795 81.5964 592.075 81.5544C592.131 81.5404 593.463 81.3301 594.08 82.003 594.374 82.3113 594.458 82.7739 594.304 83.3627ZM594.304 53.2809 594.29 53.3089C594.22 53.4491 593.533 54.6406 593.029 54.7387L592.706 54.8088 592.888 54.5425C592.93 54.4864 593.729 53.2108 592.019 51.7109L591.795 51.5147 592.075 51.4726C592.131 51.4586 593.463 51.2483 594.08 51.9212 594.374 52.2296 594.458 52.6922 594.304 53.2809ZM609.009 94.5908 609.135 94.801 608.882 94.773C608.448 94.759 606.303 94.6188 606.303 93.7497L606.303 91.8713 606.527 92.0396C606.527 92.0396 606.948 92.3339 607.873 92.2919 607.901 92.2919 608.392 92.2638 608.756 92.6003 608.981 92.8105 609.093 93.1049 609.093 93.4834 609.023 93.9459 608.981 94.4926 609.009 94.5908ZM606.513 94.815C606.513 94.815 606.934 95.1094 607.859 95.0674L607.859 95.0674C607.887 95.0674 608.378 95.0393 608.742 95.3757 608.967 95.586 609.079 95.8804 609.079 96.2589 609.023 96.7355 608.981 97.2821 609.009 97.3662L609.135 97.5765 608.882 97.5485C608.448 97.5345 606.303 97.3943 606.303 96.5252L606.303 94.6468 606.513 94.815ZM608.939 100.268C608.504 100.254 606.359 100.114 606.359 99.2446L606.359 97.3662 606.584 97.5345C606.584 97.5345 607.004 97.8288 607.929 97.7868 607.943 97.7868 608.448 97.7587 608.812 98.0952 609.037 98.3054 609.149 98.5998 609.149 98.9783 609.093 99.4549 609.051 100.002 609.079 100.086L609.205 100.296 608.939 100.268ZM609.892 100.324 609.639 100.338 609.766 100.128C609.78 100.044 609.738 99.4969 609.681 99.0484 609.681 98.6559 609.794 98.3615 610.018 98.1512 610.368 97.8148 610.873 97.8428 610.901 97.8428 611.826 97.8989 612.247 97.5905 612.261 97.5905L612.471 97.4363 612.471 99.3147C612.457 100.17 610.312 100.31 609.892 100.324ZM609.948 97.6045 609.695 97.6186 609.822 97.4083C609.836 97.3242 609.794 96.7775 609.738 96.3289 609.738 95.9364 609.85 95.6421 610.074 95.4318 610.424 95.0954 610.929 95.1234 610.957 95.1234 611.882 95.1795 612.303 94.8711 612.317 94.8711L612.527 94.7169 612.527 96.5953C612.527 97.4503 610.382 97.5905 609.948 97.6045ZM609.948 94.8291 609.695 94.8431 609.822 94.6328C609.836 94.5487 609.794 94.002 609.738 93.5535 609.738 93.161 609.85 92.8666 610.074 92.6563 610.424 92.3199 610.929 92.3479 610.957 92.3479 611.896 92.404 612.303 92.0956 612.317 92.0956L612.527 91.9414 612.527 93.8198C612.527 94.6749 610.382 94.815 609.948 94.8291ZM629.671 86.3484C629.656 86.3905 629.292 87.1754 628.549 87.3437L628.451 91.5069 627.386 91.4368 627.386 89.8108 625.647 88.0726 627.386 88.0165 627.428 87.2455C626.979 87.0493 625.143 86.1381 625.269 84.414L625.297 84.0075 625.521 84.3579C625.535 84.3859 626.923 86.5306 629.516 86.1241L629.769 86.0821 629.671 86.3484ZM627.988 54.5425 628.101 54.5845 628.073 54.6967C628.073 54.7107 628.03 54.8509 627.862 54.949 627.764 55.0051 627.638 55.0331 627.498 55.0331 627.386 55.0331 627.245 55.0191 627.105 54.977L627.049 54.963 627.021 54.9069C627.007 54.8649 626.517 53.9397 626.811 53.2529 626.937 52.9585 627.203 52.7482 627.568 52.6501L627.792 52.58 627.736 52.8043C627.624 53.2248 627.456 54.3042 627.988 54.5425ZM628.016 83.2085C628.016 83.1103 628.058 82.8861 628.227 82.816 628.437 82.7178 628.675 82.9281 628.759 82.9982 628.801 83.0403 629.236 83.629 629.082 84.0916 629.012 84.3018 628.829 84.456 628.563 84.5401L628.521 84.5542 628.479 84.5401C628.465 84.5401 628.101 84.4 627.946 84.0495 627.862 83.8112 627.876 83.5309 628.016 83.2085ZM627.862 82.1852 628.129 82.031C628.171 82.003 629.208 81.4282 629.755 81.9609 630.287 82.4936 629.839 83.2645 629.825 83.3066L629.713 83.5028 629.6 83.3206C629.166 82.6197 628.185 82.2973 628.171 82.2973L627.862 82.1852ZM628.297 85.2691C628.311 85.2691 629.797 84.7084 630.287 83.3767L630.596 82.5356 630.554 83.4327C630.47 85.1429 630.329 85.4373 630.203 85.4793 630.105 85.5634 629.909 85.6335 629.446 85.6335 629.166 85.6335 628.815 85.6055 628.325 85.5354L627.792 85.4653 628.297 85.2691ZM629.152 81.246 628.815 81.1899 629.11 80.9937C629.166 80.9656 630.427 80.1526 631.241 80.7694 632.054 81.3722 631.731 82.9982 631.717 83.0683L631.633 83.4748 631.465 83.0963C630.736 81.5404 629.166 81.26 629.152 81.246ZM628.619 73.4662 628.619 73.4522C628.619 73.0737 628.731 72.7794 628.956 72.5691 629.306 72.2327 629.811 72.2607 629.839 72.2607 630.778 72.3168 631.184 72.0084 631.184 72.0084L631.395 71.8542 631.395 73.7326C631.395 74.6017 629.25 74.7418 628.815 74.7559L628.563 74.7699 628.689 74.5596C628.717 74.4615 628.661 73.9148 628.619 73.4662ZM628.675 70.7468C628.675 70.3543 628.787 70.06 629.012 69.8497 629.362 69.5133 629.867 69.5413 629.895 69.5413 630.834 69.5974 631.241 69.289 631.241 69.289L631.465 69.1348 631.465 71.0132C631.465 71.8822 629.32 72.0224 628.886 72.0364L628.647 72.0505 628.759 71.8402C628.773 71.7281 628.731 71.1814 628.675 70.7468ZM628.886 69.2469 628.647 69.261 628.773 69.0507C628.787 68.9666 628.745 68.4199 628.689 67.9713 628.689 67.5788 628.801 67.2845 629.026 67.0742 629.376 66.7378 629.881 66.7658 629.909 66.7658 630.834 66.8219 631.255 66.5135 631.255 66.5135L631.465 66.3593 631.465 68.2377C631.451 69.0927 629.306 69.2329 628.886 69.2469ZM629.446 55.5377C629.166 55.5377 628.815 55.5097 628.325 55.4396L627.792 55.3695 628.297 55.1873C628.311 55.1873 629.797 54.6266 630.287 53.2949L630.596 52.4538 630.554 53.351C630.47 55.0611 630.329 55.3555 630.203 55.3975 630.105 55.4676 629.895 55.5377 629.446 55.5377ZM627.96 53.9678C627.862 53.7295 627.876 53.4351 628.016 53.1267 628.016 53.0286 628.058 52.8043 628.227 52.7342 628.437 52.6361 628.675 52.8463 628.759 52.9164 628.801 52.9585 629.236 53.5472 629.082 54.0098 629.012 54.2201 628.829 54.3743 628.563 54.4584L628.521 54.4724 628.479 54.4584C628.465 54.4584 628.115 54.3322 627.96 53.9678ZM629.825 53.2108 629.713 53.407 629.6 53.2248C629.166 52.5239 628.185 52.2015 628.171 52.2015L627.876 52.1034 628.143 51.9492C628.185 51.9212 629.222 51.3465 629.769 51.8791 630.287 52.4118 629.839 53.1828 629.825 53.2108ZM629.516 56.0704 629.769 56.0283 629.671 56.2526C629.656 56.2947 629.292 57.0797 628.549 57.2479L628.451 61.4111 627.386 61.341 627.386 59.715 625.647 57.9768 627.386 57.9207 627.428 57.1497C626.979 56.9535 625.143 56.0424 625.269 54.3182L625.297 53.9117 625.521 54.2621C625.535 54.3182 626.923 56.4769 629.516 56.0704ZM625.451 66.5696C625.451 66.5696 625.872 66.878 626.797 66.8219L626.797 66.8219C626.825 66.8219 627.316 66.7939 627.68 67.1303 627.904 67.3405 628.016 67.6349 628.016 68.0134 627.96 68.49 627.918 69.0367 627.946 69.1208L628.073 69.331 627.82 69.303C627.386 69.289 625.241 69.1488 625.241 68.2797L625.241 66.4014 625.451 66.5696ZM625.451 69.3451C625.451 69.3451 625.872 69.6394 626.797 69.5974L626.797 69.5974C626.825 69.5974 627.316 69.5693 627.68 69.9058 627.904 70.116 628.016 70.4104 628.016 70.7889 627.96 71.2655 627.918 71.8122 627.946 71.8963L628.073 72.1065 627.82 72.0785C627.386 72.0645 625.241 71.9243 625.241 71.0552L625.241 69.1768 625.451 69.3451ZM625.297 71.8963 625.521 72.0645C625.535 72.0645 625.956 72.3588 626.867 72.3168 626.895 72.3168 627.386 72.2888 627.75 72.6252 627.974 72.8354 628.087 73.1298 628.087 73.5083 628.03 73.9849 627.988 74.5316 628.016 74.6157L628.143 74.8259 627.89 74.7979C627.456 74.7839 625.311 74.6437 625.311 73.7746L625.311 71.8963ZM625.732 80.8956C626.152 80.3208 626.671 79.9704 627.26 79.8863 628.269 79.7321 629.138 80.3629 629.166 80.3909L629.488 80.6432 629.082 80.6432C628.886 80.6432 628.325 81.0357 627.988 81.3161L627.918 81.3722 627.848 81.3441C627.316 81.1198 625.844 81.1198 625.83 81.1198L625.563 81.1198 625.732 80.8956ZM627.988 84.6242 628.101 84.6663 628.073 84.7784C628.073 84.7925 628.03 84.9326 627.862 85.0308 627.764 85.0868 627.638 85.1149 627.498 85.1149 627.386 85.1149 627.245 85.1008 627.105 85.0588L627.049 85.0448 627.021 84.9887C627.007 84.9466 626.517 84.0215 626.811 83.3346 626.937 83.0403 627.203 82.83 627.568 82.7319L627.792 82.6618 627.736 82.8861C627.624 83.3066 627.456 84.4 627.988 84.6242ZM632.026 85.7877C631.731 86.2923 631.016 86.3764 630.596 86.3764 630.413 86.3764 630.273 86.3624 630.259 86.3624L630.007 86.3344 630.161 86.1381C631.1 85.0167 630.932 83.2085 630.932 83.1804L630.876 82.6758 631.17 83.0823C632.082 84.3159 632.362 85.213 632.026 85.7877ZM632.026 55.6919C631.731 56.1966 631.016 56.2807 630.596 56.2807 630.413 56.2807 630.273 56.2666 630.259 56.2666L630.007 56.2386 630.161 56.0424C631.1 54.921 630.932 53.1127 630.932 53.0846L630.876 52.58 631.17 52.9865C632.082 54.2201 632.362 55.1312 632.026 55.6919ZM631.227 50.6876C632.04 51.2904 631.717 52.9164 631.703 52.9865L631.619 53.393 631.451 53.0146C630.736 51.4586 629.166 51.1642 629.152 51.1642L628.815 51.1082 629.11 50.9119C629.152 50.8839 630.413 50.0709 631.227 50.6876ZM625.732 50.8138C626.152 50.2391 626.671 49.8886 627.26 49.8045 628.269 49.6503 629.138 50.2951 629.166 50.3092L629.488 50.5615 629.082 50.5615C628.886 50.5615 628.325 50.954 627.988 51.2343L627.918 51.2904 627.848 51.2624C627.316 51.0381 625.844 51.0381 625.83 51.0381L625.563 51.0381 625.732 50.8138ZM625.325 51.9072C625.942 51.2483 627.273 51.4446 627.33 51.4586L627.61 51.5007 627.386 51.6969C625.676 53.1968 626.489 54.4724 626.517 54.5285L626.699 54.7948 626.376 54.7247C625.858 54.6266 625.185 53.4351 625.115 53.2949L625.101 53.2669C624.947 52.6922 625.031 52.2296 625.325 51.9072ZM625.325 82.003C625.942 81.3441 627.273 81.5404 627.33 81.5544L627.61 81.5964 627.386 81.7927C625.676 83.2926 626.489 84.5682 626.517 84.6242L626.699 84.8906 626.376 84.8205C625.858 84.7224 625.185 83.5309 625.115 83.3907L625.101 83.3627C624.947 82.7739 625.031 82.3113 625.325 82.003ZM623.643 81.5544C623.643 81.6525 622.914 91.605 609.653 91.8293 609.639 91.8293 609.499 91.8433 609.233 91.8433 607.214 91.8433 598.523 91.2686 595.285 81.6385L595.271 81.5964 595.075 57.2058 623.923 57.2058 623.643 81.5544ZM609.752 50.169C609.752 49.7765 609.864 49.4821 610.088 49.2719 610.438 48.9354 610.943 48.9635 610.971 48.9635L610.971 48.9635C611.91 49.0195 612.317 48.7112 612.317 48.7112L612.527 48.557 612.527 50.4353C612.527 51.3044 610.382 51.4446 609.948 51.4586L609.695 51.4726 609.822 51.2624C609.836 51.1642 609.794 50.6175 609.752 50.169ZM609.822 54.0238C609.836 53.9397 609.794 53.393 609.738 52.9445 609.738 52.552 609.85 52.2576 610.074 52.0473 610.424 51.7109 610.929 51.739 610.957 51.739L610.957 51.739C611.882 51.795 612.303 51.4866 612.303 51.4866L612.513 51.3324 612.513 53.2108C612.513 54.0799 610.368 54.2201 609.934 54.2341L609.681 54.2481 609.822 54.0238ZM609.681 55.6639C609.681 55.2714 609.794 54.977 610.018 54.7668 610.368 54.4303 610.873 54.4584 610.901 54.4584L610.901 54.4584C611.826 54.5144 612.247 54.2061 612.247 54.2061L612.457 54.0519 612.457 55.9302C612.457 56.7993 610.312 56.9395 609.878 56.9535L609.625 56.9675 609.752 56.7573C609.78 56.6591 609.738 56.1124 609.681 55.6639ZM609.065 56.7012 609.191 56.9114 608.939 56.8834C608.504 56.8694 606.359 56.7292 606.359 55.8601L606.359 53.9818 606.584 54.15C606.584 54.15 607.004 54.4444 607.929 54.4023 607.943 54.4023 608.448 54.3743 608.812 54.7107 609.037 54.921 609.149 55.2153 609.149 55.5938 609.079 56.0564 609.037 56.6031 609.065 56.7012ZM606.513 51.4306C606.527 51.4446 606.948 51.7249 607.859 51.6829 607.887 51.6829 608.378 51.6549 608.742 51.9913 608.967 52.2015 609.079 52.4959 609.079 52.8744 609.023 53.351 608.981 53.8977 609.009 53.9818L609.135 54.192 608.882 54.164C608.448 54.15 606.303 54.0098 606.303 53.1407L606.303 51.2624 606.513 51.4306Z" fill="#878787" transform="matrix(1 0 0 1.00078 0 0.284305)"/><path d="M640.997 49.4401 642.118 49.4401 642.118 58.5936 640.997 58.5936Z" fill="#878787" transform="matrix(1 0 0 1.00078 0 0.284305)"/><path d="M644.515 48.6831 645.581 48.6831 645.581 58.5936 644.515 58.5936Z" fill="#878787" transform="matrix(1 0 0 1.00078 0 0.284305)"/><path d="M650.445 58.7758C650.108 58.7758 649.8 58.7337 649.533 58.6636 649.267 58.5936 649.029 58.4954 648.819 58.3553 648.608 58.2151 648.44 58.0609 648.3 57.8787 648.16 57.6964 648.048 57.4862 647.964 57.2759 647.893 57.1077 647.851 56.9255 647.823 56.7292 647.795 56.533 647.781 56.3227 647.781 56.0844L647.781 52.0894 648.847 52.0894 648.847 56.0704C648.847 56.4348 648.903 56.7292 648.987 56.9675 649.099 57.2479 649.267 57.4581 649.519 57.6123 649.772 57.7665 650.08 57.8506 650.459 57.8506 650.865 57.8506 651.188 57.7665 651.426 57.5843 651.678 57.4161 651.846 57.1778 651.945 56.8834 652.029 56.6591 652.057 56.3788 652.057 56.0564L652.057 52.0754 653.122 52.0754 653.122 56.0704C653.122 56.2947 653.108 56.4909 653.08 56.6872 653.052 56.8834 653.01 57.0516 652.954 57.2058 652.87 57.4301 652.758 57.6404 652.617 57.8226 652.477 58.0188 652.295 58.173 652.085 58.3132 651.874 58.4534 651.636 58.5515 651.356 58.6356 651.103 58.7337 650.781 58.7758 650.445 58.7758" fill="#878787" transform="matrix(1 0 0 1.00078 0 0.284305)"/><path d="M656.024 53.8276C656.024 54.0098 656.066 54.15 656.136 54.2621 656.206 54.3743 656.318 54.4724 656.444 54.5425 656.57 54.6126 656.724 54.6686 656.893 54.7107 657.061 54.7527 657.229 54.7948 657.411 54.8368 657.664 54.8929 657.888 54.949 658.112 55.0191 658.336 55.0892 658.533 55.1873 658.715 55.3134 658.897 55.4396 659.051 55.6218 659.164 55.8461 659.276 56.0704 659.332 56.3648 659.332 56.7292 659.332 57.0516 659.262 57.346 659.135 57.5983 659.009 57.8506 658.827 58.0609 658.589 58.2291 658.351 58.3973 658.084 58.5235 657.748 58.6216 657.425 58.7057 657.061 58.7618 656.682 58.7618 656.444 58.7618 656.234 58.7478 656.038 58.7197 655.841 58.6917 655.673 58.6636 655.519 58.6216 655.365 58.5795 655.239 58.5375 655.141 58.4954 655.042 58.4534 654.944 58.4113 654.874 58.3833L654.874 57.5002C655.141 57.6123 655.407 57.6964 655.673 57.7525 655.94 57.8226 656.234 57.8506 656.556 57.8506 656.809 57.8506 657.033 57.8226 657.229 57.7805 657.425 57.7385 657.608 57.6684 657.748 57.5843 657.888 57.5002 658 57.388 658.084 57.2479 658.168 57.1077 658.196 56.9535 658.196 56.7853 658.196 56.6031 658.154 56.4489 658.084 56.3367 658.014 56.2106 657.916 56.1265 657.79 56.0424 657.664 55.9583 657.523 55.9022 657.369 55.8461 657.215 55.79 657.047 55.748 656.865 55.7059 656.64 55.6499 656.402 55.5938 656.164 55.5237 655.925 55.4536 655.715 55.3555 655.519 55.2293 655.323 55.1032 655.169 54.935 655.056 54.7247 654.944 54.5144 654.874 54.2341 654.874 53.9117 654.874 53.5753 654.93 53.2669 655.056 53.0286 655.183 52.7763 655.351 52.566 655.561 52.4118 655.771 52.2436 656.01 52.1174 656.29 52.0473 656.57 51.9632 656.865 51.9212 657.173 51.9212 657.537 51.9212 657.874 51.9492 658.182 52.0193 658.491 52.0894 658.771 52.1735 659.023 52.2856L659.023 53.1828C658.757 53.0846 658.477 52.9865 658.21 52.9305 657.93 52.8604 657.65 52.8323 657.369 52.8183 657.131 52.8183 656.921 52.8463 656.739 52.8884 656.57 52.9445 656.416 53.0146 656.304 53.0987 656.192 53.1828 656.108 53.2949 656.066 53.4211 656.052 53.5472 656.024 53.6874 656.024 53.8276" fill="#878787" transform="matrix(1 0 0 1.00078 0 0.284305)"/><path d="M664.518 58.6216C664.434 58.6636 664.28 58.6917 664.098 58.7197 663.916 58.7478 663.691 58.7758 663.425 58.7758 663.074 58.7758 662.78 58.7337 662.528 58.6496 662.275 58.5655 662.065 58.4394 661.897 58.2852 661.729 58.131 661.603 57.9347 661.519 57.7104 661.434 57.4862 661.392 57.2339 661.392 56.9675L661.392 53.0146 660.131 53.0146 660.131 52.1034 661.392 52.1034 661.392 50.3232 662.458 50.3232 662.458 52.1034 664.434 52.1034 664.434 53.0146 662.486 53.0146 662.486 56.8133C662.486 56.9675 662.514 57.1077 662.556 57.2339 662.598 57.36 662.668 57.4722 662.766 57.5703 662.864 57.6684 662.976 57.7385 663.131 57.7946 663.271 57.8506 663.453 57.8787 663.663 57.8787 663.803 57.8787 663.958 57.8646 664.112 57.8506 664.266 57.8226 664.42 57.7946 664.546 57.7665L664.546 58.6216Z" fill="#878787" transform="matrix(1 0 0 1.00078 0 0.284305)"/><path d="M669.677 52.9585 669.593 52.9585C669.34 52.9585 669.088 52.9865 668.85 53.0286 668.611 53.0706 668.387 53.1407 668.163 53.2388 667.953 53.337 667.756 53.4491 667.588 53.5893 667.42 53.7295 667.28 53.8836 667.154 54.0799L667.154 58.6076 666.088 58.6076 666.088 52.1034 666.915 52.1034 667.126 53.1407 667.14 53.1407C667.252 52.9725 667.378 52.8183 667.532 52.6641 667.686 52.5099 667.854 52.3838 668.051 52.2856 668.247 52.1735 668.457 52.0894 668.682 52.0333 668.906 51.9773 669.144 51.9352 669.396 51.9352L669.537 51.9352 669.663 51.9492 669.663 52.9585Z" fill="#878787" transform="matrix(1 0 0 1.00078 0 0.284305)"/><path d="M674.05 57.8506C674.401 57.8506 674.723 57.8226 675.017 57.7665 675.312 57.7104 675.592 57.6264 675.887 57.5282L675.887 58.4113C675.648 58.5235 675.368 58.6216 675.017 58.6777 674.681 58.7478 674.303 58.7758 673.91 58.7758 673.448 58.7758 673.013 58.7197 672.592 58.5936 672.186 58.4674 671.835 58.2852 671.527 58.0188 671.233 57.7525 670.994 57.4021 670.826 56.9815 670.658 56.547 670.574 56.0424 670.574 55.4396 670.574 54.8509 670.658 54.3322 670.812 53.8977 670.98 53.4631 671.191 53.0987 671.471 52.8043 671.737 52.5099 672.06 52.2997 672.41 52.1455 672.761 51.9913 673.139 51.9212 673.532 51.9212 673.896 51.9212 674.232 51.9773 674.555 52.1034 674.877 52.2296 675.144 52.4118 675.382 52.6781 675.62 52.9445 675.802 53.2809 675.929 53.6874 676.069 54.0939 676.125 54.5845 676.125 55.1733L676.125 55.3134C676.125 55.3555 676.125 55.4396 676.125 55.5798L671.625 55.5798C671.625 56.0003 671.695 56.3507 671.807 56.6311 671.934 56.9255 672.102 57.1638 672.326 57.332 672.536 57.5142 672.803 57.6404 673.097 57.7245 673.391 57.8086 673.714 57.8506 674.05 57.8506M673.49 52.8323C673.237 52.8323 673.013 52.8744 672.803 52.9725 672.592 53.0706 672.41 53.1968 672.256 53.365 672.102 53.5332 671.976 53.7295 671.878 53.9397 671.779 54.164 671.723 54.4023 671.695 54.6546L675.031 54.6546C675.031 54.4023 675.003 54.164 674.933 53.9397 674.863 53.7154 674.765 53.5192 674.639 53.365 674.513 53.1968 674.345 53.0706 674.162 52.9725 673.952 52.8884 673.742 52.8323 673.49 52.8323" fill="#878787" transform="matrix(1 0 0 1.00078 0 0.284305)"/><path d="M645.861 71.6159 645.342 71.6159 643.029 66.149C642.707 65.3921 642.384 64.5791 642.062 63.696L642.006 63.696C642.076 64.9716 642.104 66.135 642.104 67.2004L642.104 71.6299 640.983 71.6299 640.983 62.4764 642.595 62.4764 644.753 67.6629C645.006 68.2517 645.272 68.9666 645.567 69.8076L645.609 69.8076C645.931 68.8825 646.211 68.1676 646.422 67.6629L648.58 62.4764 650.192 62.4764 650.192 71.6299 649.071 71.6299 649.071 67.2004C649.071 66.1631 649.099 64.9996 649.169 63.696L649.113 63.696C648.776 64.6351 648.454 65.4482 648.146 66.149L645.861 71.6159Z" fill="#878787" transform="matrix(1 0 0 1.00078 0 0.284305)"/><path d="M655.141 71.7981C654.804 71.7981 654.496 71.7561 654.229 71.686 653.963 71.6159 653.725 71.5178 653.514 71.3776 653.304 71.2374 653.136 71.0832 652.996 70.901 652.856 70.7188 652.744 70.5085 652.659 70.2983 652.589 70.13 652.547 69.9478 652.519 69.7516 652.491 69.5553 652.477 69.3451 652.477 69.1068L652.477 65.1117 653.543 65.1117 653.543 69.0927C653.543 69.4572 653.585 69.7516 653.683 69.9899 653.795 70.2702 653.977 70.4805 654.215 70.6347 654.454 70.7889 654.776 70.873 655.155 70.873 655.561 70.873 655.883 70.7889 656.122 70.6066 656.374 70.4384 656.542 70.2001 656.64 69.9058 656.724 69.6815 656.753 69.4011 656.753 69.0787L656.753 65.0977 657.818 65.0977 657.818 69.0927C657.818 69.317 657.804 69.5133 657.776 69.7095 657.748 69.9058 657.706 70.074 657.65 70.2282 657.566 70.4524 657.453 70.6627 657.313 70.8449 657.173 71.0412 656.991 71.1954 656.781 71.3356 656.57 71.4757 656.332 71.5739 656.052 71.658 655.799 71.7561 655.491 71.7981 655.141 71.7981" fill="#878787" transform="matrix(1 0 0 1.00078 0 0.284305)"/><path d="M661 66.0229 661.014 66.0229C661.126 65.8687 661.266 65.7285 661.406 65.6024 661.547 65.4762 661.715 65.3641 661.897 65.2659 662.079 65.1678 662.275 65.0977 662.486 65.0417 662.696 64.9856 662.934 64.9576 663.187 64.9576 663.481 64.9576 663.761 64.9996 664.028 65.0837 664.294 65.1678 664.518 65.294 664.701 65.4762 664.897 65.6584 665.051 65.8967 665.163 66.1911 665.275 66.4855 665.331 66.8499 665.331 67.2705L665.331 71.6299 664.266 71.6299 664.266 67.4527C664.266 66.892 664.154 66.4855 663.944 66.2472 663.719 65.9949 663.411 65.8827 662.99 65.8827 662.626 65.8827 662.275 65.9808 661.925 66.1911 661.589 66.4014 661.294 66.6817 661.042 67.0322L661.042 71.658 659.977 71.658 659.977 65.1538 660.804 65.1538 661 66.0229Z" fill="#878787" transform="matrix(1 0 0 1.00078 0 0.284305)"/><path d="M667.56 62.4204 668.625 62.4204 668.625 63.6119 667.56 63.6119 667.56 62.4204ZM667.588 65.1258 668.639 65.1258 668.639 71.6299 667.574 71.6299 667.574 65.1258Z" fill="#878787" transform="matrix(1 0 0 1.00078 0 0.284305)"/><path d="M673.714 64.9435C674.036 64.9435 674.331 64.9716 674.625 65.0417 674.905 65.1117 675.158 65.1958 675.368 65.322L675.368 66.2051C675.074 66.093 674.807 66.0089 674.569 65.9528 674.331 65.8967 674.078 65.8687 673.826 65.8687 673.56 65.8687 673.293 65.9108 673.041 65.9949 672.775 66.079 672.55 66.2191 672.34 66.4154 672.13 66.6116 671.962 66.878 671.849 67.2004 671.723 67.5228 671.667 67.9293 671.667 68.4199 671.667 68.7703 671.709 69.0927 671.807 69.3871 671.906 69.6815 672.046 69.9338 672.228 70.1581 672.41 70.3683 672.648 70.5366 672.929 70.6627 673.209 70.7889 673.532 70.8449 673.896 70.8449 674.162 70.8449 674.429 70.8169 674.695 70.7608 674.961 70.7048 675.228 70.6207 675.48 70.5225L675.48 71.4056C675.396 71.4477 675.298 71.4898 675.172 71.5458 675.046 71.5879 674.905 71.6299 674.751 71.672 674.597 71.714 674.443 71.7421 674.275 71.7561 674.106 71.7841 673.938 71.7841 673.77 71.7841 673.335 71.7841 672.915 71.714 672.522 71.5879 672.13 71.4617 671.793 71.2515 671.499 70.9851 671.205 70.7048 670.98 70.3683 670.812 69.9478 670.644 69.5273 670.56 69.0367 670.56 68.462 670.56 68.0274 670.602 67.6489 670.7 67.3125 670.784 66.9761 670.91 66.6677 671.065 66.4154 671.219 66.149 671.401 65.9388 671.611 65.7566 671.821 65.5743 672.046 65.4201 672.27 65.308 672.508 65.1958 672.747 65.1117 672.999 65.0557 673.237 64.9716 673.476 64.9435 673.714 64.9435" fill="#878787" transform="matrix(1 0 0 1.00078 0 0.284305)"/><path d="M677.26 62.4204 678.326 62.4204 678.326 63.6119 677.26 63.6119 677.26 62.4204ZM677.288 65.1258 678.354 65.1258 678.354 71.6299 677.288 71.6299 677.288 65.1258Z" fill="#878787" transform="matrix(1 0 0 1.00078 0 0.284305)"/><path d="M686.386 68.2937C686.386 68.7423 686.344 69.1488 686.246 69.4993 686.161 69.8497 686.035 70.1581 685.895 70.4104 685.741 70.6767 685.573 70.887 685.376 71.0692 685.18 71.2515 684.97 71.3916 684.76 71.4898 684.549 71.6019 684.339 71.672 684.115 71.7281 683.891 71.7841 683.694 71.7981 683.498 71.7981 683.092 71.7981 682.755 71.7281 682.461 71.6019 682.166 71.4757 681.9 71.2795 681.662 71.0272L681.648 71.0272 681.648 74.8119 680.596 74.8119 680.596 65.1258 681.396 65.1258 681.62 65.8687 681.634 65.8687C681.69 65.7706 681.774 65.6865 681.858 65.6024 681.956 65.5183 682.082 65.4201 682.237 65.322 682.391 65.2239 682.587 65.1398 682.811 65.0697 683.036 64.9996 683.274 64.9576 683.54 64.9576 683.905 64.9576 684.255 65.0136 684.606 65.1398 684.942 65.2659 685.25 65.4622 685.503 65.7285 685.769 65.9949 685.979 66.3453 686.133 66.7658 686.316 67.1863 686.386 67.691 686.386 68.2937M685.278 68.3078C685.278 67.9293 685.236 67.5929 685.152 67.2845 685.068 66.9761 684.956 66.7238 684.788 66.5135 684.634 66.3032 684.423 66.135 684.199 66.0229 683.961 65.9108 683.694 65.8547 683.386 65.8547 683.162 65.8547 682.965 65.8827 682.783 65.9388 682.601 65.9949 682.433 66.079 682.293 66.1631 682.138 66.2612 682.012 66.3453 681.914 66.4574 681.802 66.5556 681.718 66.6537 681.662 66.7378L681.662 70.1441C681.886 70.3683 682.138 70.5506 682.433 70.6908 682.713 70.8169 683.022 70.887 683.358 70.887 683.554 70.887 683.778 70.8449 684.003 70.7749 684.227 70.7048 684.437 70.5646 684.634 70.3683 684.83 70.1721 684.984 69.9058 685.11 69.5834 685.222 69.2469 685.278 68.8264 685.278 68.3078" fill="#878787" transform="matrix(1 0 0 1.00078 0 0.284305)"/><path d="M692.021 70.901 691.993 70.901C691.909 71.0132 691.797 71.1253 691.656 71.2234 691.53 71.3356 691.376 71.4197 691.194 71.5038 691.026 71.5879 690.829 71.658 690.619 71.7 690.409 71.7561 690.199 71.7701 689.96 71.7701 689.638 71.7701 689.357 71.7281 689.091 71.6299 688.825 71.5318 688.601 71.3916 688.418 71.2234 688.222 71.0412 688.082 70.8169 687.97 70.5646 687.858 70.2983 687.815 70.0039 687.815 69.6815 687.815 69.3591 687.872 69.0647 687.984 68.8124 688.096 68.5601 688.264 68.3358 688.474 68.1676 688.685 67.9854 688.937 67.8592 689.231 67.7611 689.526 67.6629 689.848 67.6209 690.213 67.6209 690.549 67.6209 690.857 67.6489 691.152 67.705 691.432 67.7611 691.698 67.8312 691.923 67.9153L691.951 67.9153 691.951 67.4667C691.951 67.2845 691.937 67.1303 691.923 66.9901 691.895 66.8499 691.867 66.7378 691.811 66.6256 691.698 66.4014 691.502 66.2191 691.236 66.079 690.969 65.9388 690.619 65.8687 690.185 65.8687 689.848 65.8687 689.54 65.8967 689.259 65.9668 688.965 66.0229 688.685 66.107 688.39 66.2191L688.39 65.336C688.502 65.28 688.629 65.2379 688.783 65.1818 688.937 65.1398 689.091 65.0977 689.245 65.0557 689.414 65.0276 689.582 64.9996 689.764 64.9716 689.946 64.9576 690.128 64.9435 690.311 64.9435 690.969 64.9435 691.502 65.0557 691.923 65.294 692.343 65.5323 692.638 65.8407 692.82 66.2191 692.89 66.3593 692.932 66.5275 692.96 66.7098 692.988 66.878 693.002 67.0742 693.002 67.2845L693.002 71.6299 692.105 71.6299 692.021 70.901ZM691.965 68.7703C691.768 68.7143 691.53 68.6582 691.264 68.6161 690.998 68.5601 690.703 68.532 690.381 68.532 689.932 68.532 689.582 68.6302 689.315 68.8264 689.063 69.0227 688.937 69.317 688.937 69.7095 688.937 69.9058 688.965 70.088 689.035 70.2422 689.105 70.3964 689.189 70.5225 689.301 70.6207 689.414 70.7188 689.54 70.7889 689.694 70.8309 689.848 70.887 690.016 70.901 690.185 70.901 690.409 70.901 690.619 70.873 690.815 70.8029 691.012 70.7328 691.18 70.6627 691.334 70.5646 691.488 70.4665 691.614 70.3824 691.726 70.2842 691.839 70.1861 691.909 70.13 691.965 70.074L691.965 68.7703Z" fill="#878787" transform="matrix(1 0 0 1.00078 0 0.284305)"/><path d="M695.301 61.7055 696.366 61.7055 696.366 71.6159 695.301 71.6159Z" fill="#878787" transform="matrix(1 0 0 1.00078 0 0.284305)"/><path d="M698.679 62.4204 699.745 62.4204 699.745 63.6119 698.679 63.6119 698.679 62.4204ZM698.707 65.1258 699.773 65.1258 699.773 71.6299 698.707 71.6299 698.707 65.1258Z" fill="#878787" transform="matrix(1 0 0 1.00078 0 0.284305)"/><path d="M701.651 68.4479C701.651 67.9994 701.693 67.5929 701.791 67.2424 701.875 66.892 702.001 66.5836 702.141 66.3313 702.296 66.0649 702.464 65.8547 702.66 65.6724 702.856 65.4902 703.053 65.35 703.263 65.2519 703.473 65.1398 703.683 65.0557 703.908 65.0136 704.118 64.9576 704.328 64.9435 704.525 64.9435 704.917 64.9435 705.267 65.0136 705.562 65.1398 705.856 65.2659 706.122 65.4622 706.347 65.7285L706.361 65.7285 706.361 61.7055 707.426 61.7055 707.426 71.6159 706.627 71.6159 706.403 70.887 706.375 70.887C706.291 70.9851 706.193 71.0973 706.08 71.2094 705.968 71.3215 705.842 71.4197 705.688 71.5038 705.534 71.5879 705.366 71.658 705.169 71.714 704.973 71.7701 704.749 71.7981 704.496 71.7981 704.146 71.7981 703.796 71.7421 703.445 71.6159 703.095 71.4898 702.8 71.2935 702.534 71.0412 702.268 70.7749 702.043 70.4244 701.889 70.0039 701.735 69.5693 701.651 69.0647 701.651 68.4479M702.772 68.4339C702.772 68.8124 702.814 69.1488 702.898 69.4572 702.983 69.7656 703.109 70.0179 703.263 70.2282 703.417 70.4384 703.627 70.6066 703.852 70.7188 704.09 70.8309 704.356 70.887 704.651 70.887 704.875 70.887 705.085 70.859 705.267 70.8029 705.45 70.7468 705.618 70.6627 705.758 70.5786 705.898 70.4805 706.024 70.3964 706.122 70.2842 706.235 70.1861 706.305 70.088 706.375 70.0039L706.375 66.5976C706.151 66.3733 705.898 66.1911 705.618 66.0649 705.324 65.9248 705.015 65.8687 704.679 65.8687 704.482 65.8687 704.258 65.9108 704.048 65.9808 703.824 66.0509 703.627 66.1911 703.431 66.3873 703.249 66.5836 703.081 66.8499 702.969 67.1723 702.828 67.4947 702.772 67.9293 702.772 68.4339" fill="#878787" transform="matrix(1 0 0 1.00078 0 0.284305)"/><path d="M713.51 70.901 713.482 70.901C713.398 71.0132 713.286 71.1253 713.159 71.2234 713.033 71.3356 712.879 71.4197 712.697 71.5038 712.529 71.5879 712.332 71.658 712.122 71.7 711.912 71.7561 711.702 71.7701 711.463 71.7701 711.141 71.7701 710.86 71.7281 710.594 71.6299 710.328 71.5318 710.104 71.3916 709.907 71.2234 709.711 71.0412 709.571 70.8169 709.473 70.5646 709.361 70.2983 709.318 70.0039 709.318 69.6815 709.318 69.3591 709.375 69.0647 709.487 68.8124 709.599 68.5601 709.767 68.3358 709.977 68.1676 710.188 67.9854 710.44 67.8592 710.734 67.7611 711.029 67.6629 711.351 67.6209 711.716 67.6209 712.052 67.6209 712.36 67.6489 712.655 67.705 712.949 67.7611 713.201 67.8312 713.426 67.9153L713.454 67.9153 713.454 67.4667C713.454 67.2845 713.44 67.1303 713.426 66.9901 713.398 66.8499 713.37 66.7378 713.314 66.6256 713.187 66.4014 713.005 66.2191 712.739 66.079 712.472 65.9388 712.122 65.8687 711.688 65.8687 711.351 65.8687 711.043 65.8967 710.762 65.9668 710.468 66.0229 710.188 66.107 709.893 66.2191L709.893 65.336C710.005 65.28 710.132 65.2379 710.286 65.1818 710.426 65.1398 710.594 65.0977 710.748 65.0557 710.917 65.0276 711.085 64.9996 711.267 64.9716 711.449 64.9576 711.631 64.9435 711.814 64.9435 712.472 64.9435 713.005 65.0557 713.426 65.294 713.846 65.5323 714.141 65.8407 714.323 66.2191 714.393 66.3593 714.435 66.5275 714.463 66.7098 714.491 66.878 714.505 67.0742 714.505 67.2845L714.505 71.6299 713.608 71.6299 713.51 70.901ZM713.454 68.7703C713.257 68.7143 713.033 68.6582 712.753 68.6161 712.487 68.5601 712.192 68.532 711.87 68.532 711.421 68.532 711.071 68.6302 710.804 68.8264 710.552 69.0227 710.426 69.317 710.426 69.7095 710.426 69.9058 710.454 70.088 710.524 70.2422 710.58 70.3964 710.678 70.5225 710.79 70.6207 710.903 70.7188 711.029 70.7889 711.183 70.8309 711.337 70.887 711.505 70.901 711.674 70.901 711.898 70.901 712.108 70.873 712.304 70.8029 712.501 70.7328 712.669 70.6627 712.823 70.5646 712.977 70.4665 713.103 70.3824 713.215 70.2842 713.328 70.1861 713.398 70.13 713.454 70.074L713.454 68.7703Z" fill="#878787" transform="matrix(1 0 0 1.00078 0 0.284305)"/><path d="M716.341 68.4479C716.341 67.9994 716.383 67.5929 716.482 67.2424 716.566 66.892 716.692 66.5836 716.832 66.3313 716.972 66.0649 717.154 65.8547 717.351 65.6724 717.547 65.4902 717.757 65.35 717.967 65.2519 718.178 65.1398 718.388 65.0557 718.612 65.0136 718.836 64.9576 719.033 64.9435 719.229 64.9435 719.621 64.9435 719.972 65.0136 720.266 65.1398 720.561 65.2659 720.827 65.4622 721.051 65.7285L721.079 65.7285 721.079 61.7055 722.145 61.7055 722.145 71.6159 721.346 71.6159 721.121 70.887 721.093 70.887C721.009 70.9851 720.911 71.0973 720.799 71.2094 720.687 71.3215 720.561 71.4197 720.42 71.5038 720.266 71.5879 720.098 71.658 719.902 71.714 719.706 71.7701 719.481 71.7981 719.229 71.7981 718.879 71.7981 718.528 71.7421 718.178 71.6159 717.827 71.4898 717.533 71.2935 717.266 71.0412 717 70.7749 716.776 70.4244 716.622 70.0039 716.425 69.5693 716.341 69.0647 716.341 68.4479M717.449 68.4339C717.449 68.8124 717.491 69.1488 717.575 69.4572 717.659 69.7656 717.785 70.0179 717.939 70.2282 718.108 70.4384 718.29 70.6066 718.528 70.7188 718.766 70.8309 719.033 70.887 719.327 70.887 719.551 70.887 719.762 70.859 719.93 70.8029 720.112 70.7468 720.28 70.6627 720.42 70.5786 720.561 70.4805 720.687 70.3964 720.799 70.2842 720.897 70.1861 720.981 70.088 721.037 70.0039L721.037 66.5976C720.813 66.3733 720.561 66.1911 720.28 66.0649 719.986 65.9248 719.677 65.8687 719.355 65.8687 719.159 65.8687 718.949 65.9108 718.724 65.9808 718.5 66.0509 718.29 66.1911 718.108 66.3873 717.925 66.5836 717.757 66.8499 717.645 67.1723 717.519 67.4947 717.449 67.9293 717.449 68.4339" fill="#878787" transform="matrix(1 0 0 1.00078 0 0.284305)"/><path d="M644.235 82.3113C644.039 82.3113 643.856 82.3113 643.66 82.2973 643.478 82.2973 643.296 82.2833 643.141 82.2553L643.141 86.811 640.997 86.811 640.997 75.1343 644.375 75.1343C644.936 75.1343 645.426 75.1624 645.861 75.2044 646.281 75.2465 646.66 75.3306 646.996 75.4287 647.795 75.667 648.412 76.0595 648.847 76.5922 649.281 77.1248 649.491 77.8117 649.491 78.6387 649.491 79.1994 649.379 79.7041 649.141 80.1666 648.903 80.6152 648.566 80.9937 648.118 81.3161 647.669 81.6245 647.122 81.8768 646.478 82.045 645.819 82.2272 645.076 82.3113 644.235 82.3113M643.141 80.461C643.268 80.475 643.422 80.4891 643.604 80.5031 643.8 80.5171 643.982 80.5171 644.193 80.5171 644.767 80.5171 645.258 80.475 645.637 80.3769 646.029 80.2788 646.337 80.1526 646.576 79.9844 646.814 79.8162 646.982 79.62 647.094 79.3817 647.193 79.1434 647.249 78.891 647.249 78.6107 647.249 78.2743 647.164 77.9659 647.01 77.7276 646.856 77.4753 646.576 77.279 646.183 77.1388 645.973 77.0688 645.721 77.0127 645.426 76.9846 645.132 76.9566 644.753 76.9426 644.319 76.9426L643.113 76.9426 643.113 80.461Z" fill="#878787" transform="matrix(1 0 0 1.00078 0 0.284305)"/><path d="M655.281 87.0353C654.426 87.0353 653.725 86.8951 653.164 86.6007 652.603 86.3064 652.183 85.9279 651.902 85.4373 651.748 85.1709 651.636 84.8906 651.566 84.5682 651.496 84.2598 651.454 83.9093 651.454 83.5169L651.454 78.3584 653.529 78.3584 653.529 83.3066C653.529 83.5869 653.543 83.8393 653.585 84.0495 653.627 84.2598 653.683 84.428 653.767 84.5822 653.907 84.8345 654.103 85.0308 654.356 85.1569 654.608 85.2831 654.916 85.3391 655.281 85.3391 655.659 85.3391 655.968 85.2691 656.234 85.1289 656.5 84.9887 656.696 84.7784 656.837 84.4981 656.977 84.2318 657.033 83.8393 657.033 83.3486L657.033 78.3584 659.107 78.3584 659.107 83.5169C659.107 84.2037 658.981 84.7784 658.743 85.255 658.603 85.5214 658.435 85.7597 658.224 85.9839 658.014 86.2082 657.762 86.3905 657.467 86.5447 657.173 86.6988 656.851 86.825 656.486 86.9091 656.136 86.9932 655.729 87.0353 655.281 87.0353" fill="#878787" transform="matrix(1 0 0 1.00078 0 0.284305)"/><path d="M665.71 85.3812C666.116 85.3812 666.537 85.3391 666.971 85.255 667.406 85.1709 667.854 85.0588 668.303 84.9046L668.303 86.5587C668.037 86.6708 667.63 86.783 667.07 86.8951 666.509 86.9932 665.948 87.0493 665.345 87.0493 664.743 87.0493 664.182 86.9792 663.635 86.825 663.102 86.6708 662.626 86.4185 662.219 86.0821 661.813 85.7457 661.505 85.2971 661.266 84.7504 661.028 84.2037 660.916 83.5449 660.916 82.7599 660.916 81.9889 661.028 81.3161 661.252 80.7414 661.477 80.1666 661.771 79.69 662.149 79.3116 662.528 78.9331 662.948 78.6527 663.425 78.4565 663.901 78.2743 664.406 78.1761 664.911 78.1761 665.443 78.1761 665.934 78.2603 666.397 78.4144 666.859 78.5686 667.238 78.835 667.574 79.1854 667.911 79.5359 668.163 79.9844 668.345 80.5311 668.527 81.0778 668.625 81.7366 668.625 82.4796 668.625 82.7739 668.611 83.0122 668.597 83.2225L663.032 83.2225C663.06 83.615 663.145 83.9514 663.299 84.2177 663.439 84.4981 663.635 84.7224 663.873 84.8906 664.112 85.0588 664.378 85.1849 664.701 85.2691 665.009 85.3391 665.345 85.3812 665.71 85.3812M664.883 79.7742C664.616 79.7742 664.392 79.8162 664.182 79.9143 663.972 80.0125 663.803 80.1386 663.649 80.3068 663.495 80.475 663.383 80.6573 663.299 80.8815 663.215 81.1058 663.159 81.3441 663.131 81.5824L666.467 81.5824C666.467 81.3301 666.439 81.0918 666.369 80.8815 666.299 80.6573 666.2 80.475 666.074 80.3068 665.948 80.1386 665.78 80.0125 665.584 79.9143 665.373 79.8162 665.149 79.7742 664.883 79.7742" fill="#878787" transform="matrix(1 0 0 1.00078 0 0.284305)"/><path d="M675.62 80.0125 675.452 80.0125C674.821 80.0125 674.26 80.1106 673.784 80.2928 673.307 80.475 672.929 80.7694 672.662 81.1619L672.662 86.825 670.588 86.825 670.588 78.3724 672.298 78.3724 672.494 79.5499 672.522 79.5499C672.761 79.1153 673.097 78.7789 673.532 78.5266 673.966 78.2743 674.471 78.1621 675.074 78.1621 675.284 78.1621 675.466 78.1761 675.62 78.2042L675.62 80.0125Z" fill="#878787" transform="matrix(1 0 0 1.00078 0 0.284305)"/><path d="M682.068 86.811C681.83 86.8811 681.55 86.9371 681.227 86.9792 680.905 87.0213 680.596 87.0353 680.33 87.0353 679.615 87.0353 679.041 86.9231 678.592 86.6848 678.143 86.4605 677.821 86.1241 677.639 85.6896 677.499 85.3812 677.443 84.9607 677.443 84.428L677.443 80.0545 675.859 80.0545 675.859 78.3584 677.443 78.3584 677.443 75.9894 679.517 75.9894 679.517 78.3584 681.97 78.3584 681.97 80.0545 679.517 80.0545 679.517 84.1617C679.517 84.4841 679.573 84.7224 679.671 84.8906 679.839 85.1569 680.19 85.2971 680.709 85.2971 680.947 85.2971 681.185 85.2831 681.424 85.241 681.662 85.199 681.886 85.1569 682.096 85.1008L682.096 86.811Z" fill="#878787" transform="matrix(1 0 0 1.00078 0 0.284305)"/><path d="M691.811 82.6057C691.811 83.2645 691.712 83.8673 691.516 84.414 691.32 84.9607 691.04 85.4232 690.661 85.8157 690.297 86.2082 689.848 86.5026 689.315 86.7129 688.797 86.9231 688.208 87.0353 687.563 87.0353 686.904 87.0353 686.302 86.9231 685.769 86.7129 685.236 86.5026 684.802 86.1942 684.423 85.8157 684.059 85.4232 683.778 84.9607 683.582 84.414 683.386 83.8673 683.288 83.2645 683.288 82.6057 683.288 81.9469 683.386 81.3441 683.582 80.7974 683.778 80.2508 684.059 79.7882 684.437 79.3957 684.802 79.0032 685.25 78.7088 685.783 78.4986 686.302 78.2883 686.89 78.1761 687.535 78.1761 688.194 78.1761 688.797 78.2883 689.329 78.4986 689.862 78.7088 690.311 79.0172 690.675 79.3957 691.04 79.7882 691.32 80.2508 691.516 80.7974 691.712 81.3301 691.811 81.9329 691.811 82.6057M689.68 82.6057C689.68 82.1571 689.624 81.7647 689.526 81.4142 689.428 81.0638 689.273 80.7834 689.091 80.5451 688.909 80.3068 688.685 80.1386 688.418 80.0265 688.152 79.9143 687.872 79.8583 687.563 79.8583 687.255 79.8583 686.974 79.9143 686.722 80.0265 686.47 80.1386 686.246 80.3208 686.049 80.5451 685.867 80.7834 685.713 81.0638 685.615 81.4142 685.517 81.7647 685.461 82.1571 685.461 82.6057 685.461 83.0543 685.517 83.4468 685.615 83.7972 685.713 84.1476 685.867 84.428 686.049 84.6523 686.246 84.8766 686.47 85.0588 686.722 85.1709 686.974 85.2831 687.269 85.3532 687.577 85.3532 687.886 85.3532 688.166 85.2971 688.418 85.1709 688.671 85.0588 688.895 84.8766 689.077 84.6523 689.259 84.428 689.414 84.1336 689.512 83.7972 689.624 83.4468 689.68 83.0543 689.68 82.6057" fill="#878787" transform="matrix(1 0 0 1.00078 0 0.284305)"/><path d="M700.361 83.9654C700.572 83.3346 700.726 82.8861 700.824 82.6057 700.922 82.3394 701.118 81.7787 701.427 80.9376L703.599 75.1343 705.87 75.1343 701.3 86.811 699.38 86.811 694.81 75.1343 697.095 75.1343 699.268 80.9376C699.576 81.7787 699.787 82.3254 699.871 82.6057 699.969 82.872 700.123 83.3346 700.333 83.9654L700.361 83.9654Z" fill="#878787" transform="matrix(1 0 0 1.00078 0 0.284305)"/><path d="M712.206 85.9279 712.164 85.9279C712.052 86.054 711.912 86.1802 711.744 86.3064 711.575 86.4325 711.393 86.5587 711.183 86.6708 710.973 86.783 710.734 86.8811 710.482 86.9512 710.23 87.0213 709.949 87.0493 709.655 87.0493 709.248 87.0493 708.884 86.9932 708.534 86.8671 708.183 86.7409 707.889 86.5587 707.636 86.3204 707.384 86.0821 707.188 85.8017 707.048 85.4653 706.907 85.1289 706.837 84.7644 706.837 84.3439 706.837 83.8953 706.922 83.4888 707.09 83.1244 707.258 82.7599 707.482 82.4515 707.791 82.2132 708.085 81.9609 708.449 81.7787 708.856 81.6385 709.262 81.5123 709.725 81.4422 710.23 81.4422 710.594 81.4422 710.931 81.4703 711.239 81.5123 711.547 81.5544 711.814 81.6105 712.052 81.6805L712.052 81.3441C712.052 81.1479 712.024 80.9516 711.954 80.7694 711.884 80.5872 711.772 80.419 711.631 80.2788 711.477 80.1386 711.295 80.0265 711.057 79.9424 710.818 79.8583 710.524 79.8162 710.188 79.8162 709.767 79.8162 709.347 79.8583 708.926 79.9564 708.505 80.0545 708.057 80.1947 707.566 80.3769L707.566 78.7649C707.987 78.5827 708.449 78.4425 708.926 78.3303 709.403 78.2322 709.907 78.1761 710.426 78.1761 711.043 78.1761 711.589 78.2462 712.052 78.4004 712.515 78.5546 712.907 78.7649 713.215 79.0172 713.524 79.2835 713.762 79.5919 713.916 79.9564 714.07 80.3208 714.155 80.7133 714.155 81.1339L714.155 84.3159C714.155 84.8766 714.155 85.3532 714.169 85.7597 714.183 86.1662 714.197 86.5166 714.211 86.839L712.346 86.839 712.206 85.9279ZM712.052 83.2225C711.856 83.1804 711.631 83.1384 711.365 83.0963 711.113 83.0543 710.846 83.0403 710.58 83.0403 710.076 83.0403 709.669 83.1384 709.375 83.3486 709.08 83.5449 708.926 83.8533 708.926 84.2738 708.926 84.47 708.954 84.6383 709.024 84.7784 709.094 84.9186 709.178 85.0448 709.29 85.1289 709.403 85.227 709.529 85.2971 709.683 85.3391 709.837 85.3812 709.991 85.4092 710.16 85.4092 710.37 85.4092 710.566 85.3812 710.748 85.3251 710.931 85.2691 711.113 85.199 711.267 85.1149 711.421 85.0308 711.561 84.9326 711.688 84.8345 711.814 84.7364 711.926 84.6242 712.01 84.5261L712.01 83.2225Z" fill="#878787" transform="matrix(1 0 0 1.00078 0 0.284305)"/><path d="M721.528 80.0125 721.346 80.0125C720.715 80.0125 720.154 80.1106 719.677 80.2928 719.201 80.475 718.822 80.7694 718.556 81.1619L718.556 86.825 716.482 86.825 716.482 78.3724 718.192 78.3724 718.388 79.5499 718.416 79.5499C718.654 79.1153 719.005 78.7789 719.425 78.5266 719.86 78.2743 720.364 78.1621 720.967 78.1621 721.177 78.1621 721.36 78.1761 721.514 78.2042L721.514 80.0125Z" fill="#878787" transform="matrix(1 0 0 1.00078 0 0.284305)"/><path d="M727.794 85.9279 727.766 85.9279C727.654 86.054 727.513 86.1802 727.345 86.3064 727.177 86.4325 726.995 86.5587 726.784 86.6708 726.574 86.783 726.336 86.8811 726.084 86.9512 725.831 87.0213 725.551 87.0493 725.257 87.0493 724.85 87.0493 724.486 86.9932 724.135 86.8671 723.785 86.7409 723.49 86.5587 723.238 86.3204 722.986 86.0821 722.789 85.8017 722.649 85.4653 722.509 85.1289 722.439 84.7644 722.439 84.3439 722.439 83.8953 722.523 83.4888 722.691 83.1244 722.859 82.7599 723.084 82.4515 723.392 82.2132 723.687 81.9609 724.037 81.7787 724.458 81.6385 724.864 81.5123 725.327 81.4422 725.831 81.4422 726.196 81.4422 726.532 81.4703 726.841 81.5123 727.149 81.5544 727.415 81.6105 727.654 81.6805L727.654 81.3441C727.654 81.1479 727.626 80.9516 727.555 80.7694 727.485 80.5872 727.387 80.419 727.233 80.2788 727.079 80.1386 726.897 80.0265 726.658 79.9424 726.42 79.8583 726.126 79.8162 725.789 79.8162 725.369 79.8162 724.948 79.8583 724.528 79.9564 724.107 80.0545 723.659 80.1947 723.168 80.3769L723.168 78.7649C723.588 78.5827 724.051 78.4425 724.528 78.3303 725.004 78.2322 725.509 78.1761 726.028 78.1761 726.644 78.1761 727.191 78.2462 727.654 78.4004 728.116 78.5546 728.509 78.7649 728.817 79.0172 729.125 79.2835 729.364 79.5919 729.518 79.9564 729.672 80.3208 729.756 80.7133 729.756 81.1339L729.756 84.3159C729.756 84.8766 729.756 85.3532 729.77 85.7597 729.784 86.1662 729.798 86.5166 729.812 86.839L727.948 86.839 727.794 85.9279ZM727.626 83.2225C727.429 83.1804 727.205 83.1384 726.939 83.0963 726.686 83.0543 726.42 83.0403 726.154 83.0403 725.649 83.0403 725.243 83.1384 724.948 83.3486 724.654 83.5449 724.514 83.8533 724.514 84.2738 724.514 84.47 724.542 84.6383 724.612 84.7784 724.682 84.9186 724.766 85.0448 724.878 85.1289 724.99 85.227 725.116 85.2971 725.271 85.3391 725.425 85.3812 725.579 85.4092 725.747 85.4092 725.957 85.4092 726.154 85.3812 726.336 85.3251 726.518 85.2691 726.7 85.199 726.855 85.1149 727.009 85.0308 727.149 84.9326 727.275 84.8345 727.401 84.7364 727.513 84.6242 727.597 84.5261L727.597 83.2225Z" fill="#878787" transform="matrix(1 0 0 1.00078 0 0.284305)"/><path d="M735.826 84.3719C735.826 84.1897 735.77 84.0495 735.672 83.9234 735.573 83.8112 735.433 83.7131 735.265 83.629 735.097 83.5449 734.901 83.4748 734.676 83.4187 734.452 83.3627 734.228 83.3066 733.99 83.2505 733.695 83.1664 733.401 83.0683 733.12 82.9702 732.84 82.858 732.602 82.7178 732.377 82.5496 732.167 82.3814 731.999 82.1571 731.873 81.8908 731.747 81.6245 731.691 81.3021 731.691 80.9236 731.691 80.447 731.775 80.0405 731.943 79.7041 732.111 79.3536 732.335 79.0733 732.63 78.849 732.924 78.6247 733.261 78.4565 733.639 78.3444 734.018 78.2322 734.424 78.1761 734.845 78.1761 735.363 78.1761 735.854 78.2182 736.302 78.3023 736.751 78.3864 737.172 78.4986 737.536 78.6247L737.536 80.3068C737.34 80.2367 737.143 80.1807 736.933 80.1246 736.723 80.0685 736.499 80.0265 736.288 79.9844 736.064 79.9424 735.854 79.9143 735.644 79.8863 735.433 79.8583 735.223 79.8442 735.027 79.8442 734.789 79.8442 734.578 79.8723 734.41 79.9143 734.242 79.9564 734.102 80.0265 734.004 80.0966 733.891 80.1807 733.821 80.2648 733.779 80.3629 733.737 80.461 733.709 80.5732 733.709 80.6853 733.709 80.8815 733.765 81.0357 733.863 81.1619 733.961 81.2881 734.102 81.3862 734.284 81.4563 734.466 81.5264 734.648 81.5964 734.845 81.6385 735.041 81.6805 735.237 81.7366 735.419 81.7787 735.714 81.8488 736.008 81.9329 736.288 82.031 736.583 82.1291 736.849 82.2693 737.073 82.4515 737.312 82.6337 737.494 82.858 737.648 83.1384 737.802 83.4187 737.872 83.7832 737.872 84.2177 737.872 84.6943 737.788 85.1149 737.606 85.4653 737.424 85.8157 737.172 86.1101 736.849 86.3484 736.527 86.5867 736.134 86.7549 735.686 86.8671 735.237 86.9792 734.732 87.0353 734.2 87.0353 733.667 87.0353 733.176 86.9932 732.756 86.9091 732.321 86.825 731.971 86.7129 731.691 86.5867L731.691 84.9186C732.139 85.0868 732.56 85.199 732.952 85.2691 733.331 85.3251 733.695 85.3532 734.032 85.3532 734.284 85.3532 734.522 85.3391 734.746 85.2971 734.971 85.255 735.153 85.199 735.321 85.1149 735.489 85.0308 735.616 84.9326 735.7 84.8065 735.784 84.6943 735.826 84.5401 735.826 84.3719" fill="#878787" transform="matrix(1 0 0 1.00078 0 0.284305)"/></g></svg>